<?xml version="1.0" encoding="utf-8" standalone="no"?>
<!DOCTYPE svg PUBLIC "-//W3C//DTD SVG 1.1//EN"
  "http://www.w3.org/Graphics/SVG/1.1/DTD/svg11.dtd">
<svg xmlns:xlink="http://www.w3.org/1999/xlink" width="460.8pt" height="345.6pt" viewBox="0 0 460.8 345.6" xmlns="http://www.w3.org/2000/svg" version="1.1">
 <metadata>
  <rdf:RDF xmlns:dc="http://purl.org/dc/elements/1.1/" xmlns:cc="http://creativecommons.org/ns#" xmlns:rdf="http://www.w3.org/1999/02/22-rdf-syntax-ns#">
   <cc:Work>
    <dc:type rdf:resource="http://purl.org/dc/dcmitype/StillImage"/>
    <dc:date>2022-09-14T02:15:05.699204</dc:date>
    <dc:format>image/svg+xml</dc:format>
    <dc:creator>
     <cc:Agent>
      <dc:title>Matplotlib v3.5.3, https://matplotlib.org/</dc:title>
     </cc:Agent>
    </dc:creator>
   </cc:Work>
  </rdf:RDF>
 </metadata>
 <defs>
  <style type="text/css">*{stroke-linejoin: round; stroke-linecap: butt}</style>
 </defs>
 <g id="figure_1">
  <g id="patch_1">
   <path d="M 0 345.6 
L 460.8 345.6 
L 460.8 0 
L 0 0 
z
" style="fill: #ffffff"/>
  </g>
  <g id="axes_1">
   <g id="patch_2">
    <path d="M 57.6 307.584 
L 414.72 307.584 
L 414.72 41.472 
L 57.6 41.472 
z
" style="fill: #ffffff"/>
   </g>
   <g id="matplotlib.axis_1">
    <g id="xtick_1">
     <g id="line2d_1">
      <defs>
       <path id="m23fe7639e8" d="M 0 0 
L 0 3.5 
" style="stroke: #000000; stroke-width: 0.8"/>
      </defs>
      <g>
       <use xlink:href="#m23fe7639e8" x="73.832727" y="307.584" style="stroke: #000000; stroke-width: 0.8"/>
      </g>
     </g>
     <g id="text_1">
      <!-- 0.0 -->
      <g transform="translate(65.881165 322.182437)scale(0.1 -0.1)">
       <defs>
        <path id="DejaVuSans-30" d="M 2034 4250 
Q 1547 4250 1301 3770 
Q 1056 3291 1056 2328 
Q 1056 1369 1301 889 
Q 1547 409 2034 409 
Q 2525 409 2770 889 
Q 3016 1369 3016 2328 
Q 3016 3291 2770 3770 
Q 2525 4250 2034 4250 
z
M 2034 4750 
Q 2819 4750 3233 4129 
Q 3647 3509 3647 2328 
Q 3647 1150 3233 529 
Q 2819 -91 2034 -91 
Q 1250 -91 836 529 
Q 422 1150 422 2328 
Q 422 3509 836 4129 
Q 1250 4750 2034 4750 
z
" transform="scale(0.015625)"/>
        <path id="DejaVuSans-2e" d="M 684 794 
L 1344 794 
L 1344 0 
L 684 0 
L 684 794 
z
" transform="scale(0.015625)"/>
       </defs>
       <use xlink:href="#DejaVuSans-30"/>
       <use xlink:href="#DejaVuSans-2e" x="63.623047"/>
       <use xlink:href="#DejaVuSans-30" x="95.410156"/>
      </g>
     </g>
    </g>
    <g id="xtick_2">
     <g id="line2d_2">
      <g>
       <use xlink:href="#m23fe7639e8" x="138.763636" y="307.584" style="stroke: #000000; stroke-width: 0.8"/>
      </g>
     </g>
     <g id="text_2">
      <!-- 0.2 -->
      <g transform="translate(130.812074 322.182437)scale(0.1 -0.1)">
       <defs>
        <path id="DejaVuSans-32" d="M 1228 531 
L 3431 531 
L 3431 0 
L 469 0 
L 469 531 
Q 828 903 1448 1529 
Q 2069 2156 2228 2338 
Q 2531 2678 2651 2914 
Q 2772 3150 2772 3378 
Q 2772 3750 2511 3984 
Q 2250 4219 1831 4219 
Q 1534 4219 1204 4116 
Q 875 4013 500 3803 
L 500 4441 
Q 881 4594 1212 4672 
Q 1544 4750 1819 4750 
Q 2544 4750 2975 4387 
Q 3406 4025 3406 3419 
Q 3406 3131 3298 2873 
Q 3191 2616 2906 2266 
Q 2828 2175 2409 1742 
Q 1991 1309 1228 531 
z
" transform="scale(0.015625)"/>
       </defs>
       <use xlink:href="#DejaVuSans-30"/>
       <use xlink:href="#DejaVuSans-2e" x="63.623047"/>
       <use xlink:href="#DejaVuSans-32" x="95.410156"/>
      </g>
     </g>
    </g>
    <g id="xtick_3">
     <g id="line2d_3">
      <g>
       <use xlink:href="#m23fe7639e8" x="203.694545" y="307.584" style="stroke: #000000; stroke-width: 0.8"/>
      </g>
     </g>
     <g id="text_3">
      <!-- 0.4 -->
      <g transform="translate(195.742983 322.182437)scale(0.1 -0.1)">
       <defs>
        <path id="DejaVuSans-34" d="M 2419 4116 
L 825 1625 
L 2419 1625 
L 2419 4116 
z
M 2253 4666 
L 3047 4666 
L 3047 1625 
L 3713 1625 
L 3713 1100 
L 3047 1100 
L 3047 0 
L 2419 0 
L 2419 1100 
L 313 1100 
L 313 1709 
L 2253 4666 
z
" transform="scale(0.015625)"/>
       </defs>
       <use xlink:href="#DejaVuSans-30"/>
       <use xlink:href="#DejaVuSans-2e" x="63.623047"/>
       <use xlink:href="#DejaVuSans-34" x="95.410156"/>
      </g>
     </g>
    </g>
    <g id="xtick_4">
     <g id="line2d_4">
      <g>
       <use xlink:href="#m23fe7639e8" x="268.625455" y="307.584" style="stroke: #000000; stroke-width: 0.8"/>
      </g>
     </g>
     <g id="text_4">
      <!-- 0.6 -->
      <g transform="translate(260.673892 322.182437)scale(0.1 -0.1)">
       <defs>
        <path id="DejaVuSans-36" d="M 2113 2584 
Q 1688 2584 1439 2293 
Q 1191 2003 1191 1497 
Q 1191 994 1439 701 
Q 1688 409 2113 409 
Q 2538 409 2786 701 
Q 3034 994 3034 1497 
Q 3034 2003 2786 2293 
Q 2538 2584 2113 2584 
z
M 3366 4563 
L 3366 3988 
Q 3128 4100 2886 4159 
Q 2644 4219 2406 4219 
Q 1781 4219 1451 3797 
Q 1122 3375 1075 2522 
Q 1259 2794 1537 2939 
Q 1816 3084 2150 3084 
Q 2853 3084 3261 2657 
Q 3669 2231 3669 1497 
Q 3669 778 3244 343 
Q 2819 -91 2113 -91 
Q 1303 -91 875 529 
Q 447 1150 447 2328 
Q 447 3434 972 4092 
Q 1497 4750 2381 4750 
Q 2619 4750 2861 4703 
Q 3103 4656 3366 4563 
z
" transform="scale(0.015625)"/>
       </defs>
       <use xlink:href="#DejaVuSans-30"/>
       <use xlink:href="#DejaVuSans-2e" x="63.623047"/>
       <use xlink:href="#DejaVuSans-36" x="95.410156"/>
      </g>
     </g>
    </g>
    <g id="xtick_5">
     <g id="line2d_5">
      <g>
       <use xlink:href="#m23fe7639e8" x="333.556364" y="307.584" style="stroke: #000000; stroke-width: 0.8"/>
      </g>
     </g>
     <g id="text_5">
      <!-- 0.8 -->
      <g transform="translate(325.604801 322.182437)scale(0.1 -0.1)">
       <defs>
        <path id="DejaVuSans-38" d="M 2034 2216 
Q 1584 2216 1326 1975 
Q 1069 1734 1069 1313 
Q 1069 891 1326 650 
Q 1584 409 2034 409 
Q 2484 409 2743 651 
Q 3003 894 3003 1313 
Q 3003 1734 2745 1975 
Q 2488 2216 2034 2216 
z
M 1403 2484 
Q 997 2584 770 2862 
Q 544 3141 544 3541 
Q 544 4100 942 4425 
Q 1341 4750 2034 4750 
Q 2731 4750 3128 4425 
Q 3525 4100 3525 3541 
Q 3525 3141 3298 2862 
Q 3072 2584 2669 2484 
Q 3125 2378 3379 2068 
Q 3634 1759 3634 1313 
Q 3634 634 3220 271 
Q 2806 -91 2034 -91 
Q 1263 -91 848 271 
Q 434 634 434 1313 
Q 434 1759 690 2068 
Q 947 2378 1403 2484 
z
M 1172 3481 
Q 1172 3119 1398 2916 
Q 1625 2713 2034 2713 
Q 2441 2713 2670 2916 
Q 2900 3119 2900 3481 
Q 2900 3844 2670 4047 
Q 2441 4250 2034 4250 
Q 1625 4250 1398 4047 
Q 1172 3844 1172 3481 
z
" transform="scale(0.015625)"/>
       </defs>
       <use xlink:href="#DejaVuSans-30"/>
       <use xlink:href="#DejaVuSans-2e" x="63.623047"/>
       <use xlink:href="#DejaVuSans-38" x="95.410156"/>
      </g>
     </g>
    </g>
    <g id="xtick_6">
     <g id="line2d_6">
      <g>
       <use xlink:href="#m23fe7639e8" x="398.487273" y="307.584" style="stroke: #000000; stroke-width: 0.8"/>
      </g>
     </g>
     <g id="text_6">
      <!-- 1.0 -->
      <g transform="translate(390.53571 322.182437)scale(0.1 -0.1)">
       <defs>
        <path id="DejaVuSans-31" d="M 794 531 
L 1825 531 
L 1825 4091 
L 703 3866 
L 703 4441 
L 1819 4666 
L 2450 4666 
L 2450 531 
L 3481 531 
L 3481 0 
L 794 0 
L 794 531 
z
" transform="scale(0.015625)"/>
       </defs>
       <use xlink:href="#DejaVuSans-31"/>
       <use xlink:href="#DejaVuSans-2e" x="63.623047"/>
       <use xlink:href="#DejaVuSans-30" x="95.410156"/>
      </g>
     </g>
    </g>
    <g id="text_7">
     <!-- False Positive Rate -->
     <g transform="translate(189.693594 335.860562)scale(0.1 -0.1)">
      <defs>
       <path id="DejaVuSans-46" d="M 628 4666 
L 3309 4666 
L 3309 4134 
L 1259 4134 
L 1259 2759 
L 3109 2759 
L 3109 2228 
L 1259 2228 
L 1259 0 
L 628 0 
L 628 4666 
z
" transform="scale(0.015625)"/>
       <path id="DejaVuSans-61" d="M 2194 1759 
Q 1497 1759 1228 1600 
Q 959 1441 959 1056 
Q 959 750 1161 570 
Q 1363 391 1709 391 
Q 2188 391 2477 730 
Q 2766 1069 2766 1631 
L 2766 1759 
L 2194 1759 
z
M 3341 1997 
L 3341 0 
L 2766 0 
L 2766 531 
Q 2569 213 2275 61 
Q 1981 -91 1556 -91 
Q 1019 -91 701 211 
Q 384 513 384 1019 
Q 384 1609 779 1909 
Q 1175 2209 1959 2209 
L 2766 2209 
L 2766 2266 
Q 2766 2663 2505 2880 
Q 2244 3097 1772 3097 
Q 1472 3097 1187 3025 
Q 903 2953 641 2809 
L 641 3341 
Q 956 3463 1253 3523 
Q 1550 3584 1831 3584 
Q 2591 3584 2966 3190 
Q 3341 2797 3341 1997 
z
" transform="scale(0.015625)"/>
       <path id="DejaVuSans-6c" d="M 603 4863 
L 1178 4863 
L 1178 0 
L 603 0 
L 603 4863 
z
" transform="scale(0.015625)"/>
       <path id="DejaVuSans-73" d="M 2834 3397 
L 2834 2853 
Q 2591 2978 2328 3040 
Q 2066 3103 1784 3103 
Q 1356 3103 1142 2972 
Q 928 2841 928 2578 
Q 928 2378 1081 2264 
Q 1234 2150 1697 2047 
L 1894 2003 
Q 2506 1872 2764 1633 
Q 3022 1394 3022 966 
Q 3022 478 2636 193 
Q 2250 -91 1575 -91 
Q 1294 -91 989 -36 
Q 684 19 347 128 
L 347 722 
Q 666 556 975 473 
Q 1284 391 1588 391 
Q 1994 391 2212 530 
Q 2431 669 2431 922 
Q 2431 1156 2273 1281 
Q 2116 1406 1581 1522 
L 1381 1569 
Q 847 1681 609 1914 
Q 372 2147 372 2553 
Q 372 3047 722 3315 
Q 1072 3584 1716 3584 
Q 2034 3584 2315 3537 
Q 2597 3491 2834 3397 
z
" transform="scale(0.015625)"/>
       <path id="DejaVuSans-65" d="M 3597 1894 
L 3597 1613 
L 953 1613 
Q 991 1019 1311 708 
Q 1631 397 2203 397 
Q 2534 397 2845 478 
Q 3156 559 3463 722 
L 3463 178 
Q 3153 47 2828 -22 
Q 2503 -91 2169 -91 
Q 1331 -91 842 396 
Q 353 884 353 1716 
Q 353 2575 817 3079 
Q 1281 3584 2069 3584 
Q 2775 3584 3186 3129 
Q 3597 2675 3597 1894 
z
M 3022 2063 
Q 3016 2534 2758 2815 
Q 2500 3097 2075 3097 
Q 1594 3097 1305 2825 
Q 1016 2553 972 2059 
L 3022 2063 
z
" transform="scale(0.015625)"/>
       <path id="DejaVuSans-20" transform="scale(0.015625)"/>
       <path id="DejaVuSans-50" d="M 1259 4147 
L 1259 2394 
L 2053 2394 
Q 2494 2394 2734 2622 
Q 2975 2850 2975 3272 
Q 2975 3691 2734 3919 
Q 2494 4147 2053 4147 
L 1259 4147 
z
M 628 4666 
L 2053 4666 
Q 2838 4666 3239 4311 
Q 3641 3956 3641 3272 
Q 3641 2581 3239 2228 
Q 2838 1875 2053 1875 
L 1259 1875 
L 1259 0 
L 628 0 
L 628 4666 
z
" transform="scale(0.015625)"/>
       <path id="DejaVuSans-6f" d="M 1959 3097 
Q 1497 3097 1228 2736 
Q 959 2375 959 1747 
Q 959 1119 1226 758 
Q 1494 397 1959 397 
Q 2419 397 2687 759 
Q 2956 1122 2956 1747 
Q 2956 2369 2687 2733 
Q 2419 3097 1959 3097 
z
M 1959 3584 
Q 2709 3584 3137 3096 
Q 3566 2609 3566 1747 
Q 3566 888 3137 398 
Q 2709 -91 1959 -91 
Q 1206 -91 779 398 
Q 353 888 353 1747 
Q 353 2609 779 3096 
Q 1206 3584 1959 3584 
z
" transform="scale(0.015625)"/>
       <path id="DejaVuSans-69" d="M 603 3500 
L 1178 3500 
L 1178 0 
L 603 0 
L 603 3500 
z
M 603 4863 
L 1178 4863 
L 1178 4134 
L 603 4134 
L 603 4863 
z
" transform="scale(0.015625)"/>
       <path id="DejaVuSans-74" d="M 1172 4494 
L 1172 3500 
L 2356 3500 
L 2356 3053 
L 1172 3053 
L 1172 1153 
Q 1172 725 1289 603 
Q 1406 481 1766 481 
L 2356 481 
L 2356 0 
L 1766 0 
Q 1100 0 847 248 
Q 594 497 594 1153 
L 594 3053 
L 172 3053 
L 172 3500 
L 594 3500 
L 594 4494 
L 1172 4494 
z
" transform="scale(0.015625)"/>
       <path id="DejaVuSans-76" d="M 191 3500 
L 800 3500 
L 1894 563 
L 2988 3500 
L 3597 3500 
L 2284 0 
L 1503 0 
L 191 3500 
z
" transform="scale(0.015625)"/>
       <path id="DejaVuSans-52" d="M 2841 2188 
Q 3044 2119 3236 1894 
Q 3428 1669 3622 1275 
L 4263 0 
L 3584 0 
L 2988 1197 
Q 2756 1666 2539 1819 
Q 2322 1972 1947 1972 
L 1259 1972 
L 1259 0 
L 628 0 
L 628 4666 
L 2053 4666 
Q 2853 4666 3247 4331 
Q 3641 3997 3641 3322 
Q 3641 2881 3436 2590 
Q 3231 2300 2841 2188 
z
M 1259 4147 
L 1259 2491 
L 2053 2491 
Q 2509 2491 2742 2702 
Q 2975 2913 2975 3322 
Q 2975 3731 2742 3939 
Q 2509 4147 2053 4147 
L 1259 4147 
z
" transform="scale(0.015625)"/>
      </defs>
      <use xlink:href="#DejaVuSans-46"/>
      <use xlink:href="#DejaVuSans-61" x="48.394531"/>
      <use xlink:href="#DejaVuSans-6c" x="109.673828"/>
      <use xlink:href="#DejaVuSans-73" x="137.457031"/>
      <use xlink:href="#DejaVuSans-65" x="189.556641"/>
      <use xlink:href="#DejaVuSans-20" x="251.080078"/>
      <use xlink:href="#DejaVuSans-50" x="282.867188"/>
      <use xlink:href="#DejaVuSans-6f" x="339.544922"/>
      <use xlink:href="#DejaVuSans-73" x="400.726562"/>
      <use xlink:href="#DejaVuSans-69" x="452.826172"/>
      <use xlink:href="#DejaVuSans-74" x="480.609375"/>
      <use xlink:href="#DejaVuSans-69" x="519.818359"/>
      <use xlink:href="#DejaVuSans-76" x="547.601562"/>
      <use xlink:href="#DejaVuSans-65" x="606.78125"/>
      <use xlink:href="#DejaVuSans-20" x="668.304688"/>
      <use xlink:href="#DejaVuSans-52" x="700.091797"/>
      <use xlink:href="#DejaVuSans-61" x="767.324219"/>
      <use xlink:href="#DejaVuSans-74" x="828.603516"/>
      <use xlink:href="#DejaVuSans-65" x="867.8125"/>
     </g>
    </g>
   </g>
   <g id="matplotlib.axis_2">
    <g id="ytick_1">
     <g id="line2d_7">
      <defs>
       <path id="m854ea0781b" d="M 0 0 
L -3.5 0 
" style="stroke: #000000; stroke-width: 0.8"/>
      </defs>
      <g>
       <use xlink:href="#m854ea0781b" x="57.6" y="295.488" style="stroke: #000000; stroke-width: 0.8"/>
      </g>
     </g>
     <g id="text_8">
      <!-- 0.0 -->
      <g transform="translate(34.696875 299.287219)scale(0.1 -0.1)">
       <use xlink:href="#DejaVuSans-30"/>
       <use xlink:href="#DejaVuSans-2e" x="63.623047"/>
       <use xlink:href="#DejaVuSans-30" x="95.410156"/>
      </g>
     </g>
    </g>
    <g id="ytick_2">
     <g id="line2d_8">
      <g>
       <use xlink:href="#m854ea0781b" x="57.6" y="247.104" style="stroke: #000000; stroke-width: 0.8"/>
      </g>
     </g>
     <g id="text_9">
      <!-- 0.2 -->
      <g transform="translate(34.696875 250.903219)scale(0.1 -0.1)">
       <use xlink:href="#DejaVuSans-30"/>
       <use xlink:href="#DejaVuSans-2e" x="63.623047"/>
       <use xlink:href="#DejaVuSans-32" x="95.410156"/>
      </g>
     </g>
    </g>
    <g id="ytick_3">
     <g id="line2d_9">
      <g>
       <use xlink:href="#m854ea0781b" x="57.6" y="198.72" style="stroke: #000000; stroke-width: 0.8"/>
      </g>
     </g>
     <g id="text_10">
      <!-- 0.4 -->
      <g transform="translate(34.696875 202.519219)scale(0.1 -0.1)">
       <use xlink:href="#DejaVuSans-30"/>
       <use xlink:href="#DejaVuSans-2e" x="63.623047"/>
       <use xlink:href="#DejaVuSans-34" x="95.410156"/>
      </g>
     </g>
    </g>
    <g id="ytick_4">
     <g id="line2d_10">
      <g>
       <use xlink:href="#m854ea0781b" x="57.6" y="150.336" style="stroke: #000000; stroke-width: 0.8"/>
      </g>
     </g>
     <g id="text_11">
      <!-- 0.6 -->
      <g transform="translate(34.696875 154.135219)scale(0.1 -0.1)">
       <use xlink:href="#DejaVuSans-30"/>
       <use xlink:href="#DejaVuSans-2e" x="63.623047"/>
       <use xlink:href="#DejaVuSans-36" x="95.410156"/>
      </g>
     </g>
    </g>
    <g id="ytick_5">
     <g id="line2d_11">
      <g>
       <use xlink:href="#m854ea0781b" x="57.6" y="101.952" style="stroke: #000000; stroke-width: 0.8"/>
      </g>
     </g>
     <g id="text_12">
      <!-- 0.8 -->
      <g transform="translate(34.696875 105.751219)scale(0.1 -0.1)">
       <use xlink:href="#DejaVuSans-30"/>
       <use xlink:href="#DejaVuSans-2e" x="63.623047"/>
       <use xlink:href="#DejaVuSans-38" x="95.410156"/>
      </g>
     </g>
    </g>
    <g id="ytick_6">
     <g id="line2d_12">
      <g>
       <use xlink:href="#m854ea0781b" x="57.6" y="53.568" style="stroke: #000000; stroke-width: 0.8"/>
      </g>
     </g>
     <g id="text_13">
      <!-- 1.0 -->
      <g transform="translate(34.696875 57.367219)scale(0.1 -0.1)">
       <use xlink:href="#DejaVuSans-31"/>
       <use xlink:href="#DejaVuSans-2e" x="63.623047"/>
       <use xlink:href="#DejaVuSans-30" x="95.410156"/>
      </g>
     </g>
    </g>
    <g id="text_14">
     <!-- True Positive Rate -->
     <g transform="translate(28.617187 219.057687)rotate(-90)scale(0.1 -0.1)">
      <defs>
       <path id="DejaVuSans-54" d="M -19 4666 
L 3928 4666 
L 3928 4134 
L 2272 4134 
L 2272 0 
L 1638 0 
L 1638 4134 
L -19 4134 
L -19 4666 
z
" transform="scale(0.015625)"/>
       <path id="DejaVuSans-72" d="M 2631 2963 
Q 2534 3019 2420 3045 
Q 2306 3072 2169 3072 
Q 1681 3072 1420 2755 
Q 1159 2438 1159 1844 
L 1159 0 
L 581 0 
L 581 3500 
L 1159 3500 
L 1159 2956 
Q 1341 3275 1631 3429 
Q 1922 3584 2338 3584 
Q 2397 3584 2469 3576 
Q 2541 3569 2628 3553 
L 2631 2963 
z
" transform="scale(0.015625)"/>
       <path id="DejaVuSans-75" d="M 544 1381 
L 544 3500 
L 1119 3500 
L 1119 1403 
Q 1119 906 1312 657 
Q 1506 409 1894 409 
Q 2359 409 2629 706 
Q 2900 1003 2900 1516 
L 2900 3500 
L 3475 3500 
L 3475 0 
L 2900 0 
L 2900 538 
Q 2691 219 2414 64 
Q 2138 -91 1772 -91 
Q 1169 -91 856 284 
Q 544 659 544 1381 
z
M 1991 3584 
L 1991 3584 
z
" transform="scale(0.015625)"/>
      </defs>
      <use xlink:href="#DejaVuSans-54"/>
      <use xlink:href="#DejaVuSans-72" x="46.333984"/>
      <use xlink:href="#DejaVuSans-75" x="87.447266"/>
      <use xlink:href="#DejaVuSans-65" x="150.826172"/>
      <use xlink:href="#DejaVuSans-20" x="212.349609"/>
      <use xlink:href="#DejaVuSans-50" x="244.136719"/>
      <use xlink:href="#DejaVuSans-6f" x="300.814453"/>
      <use xlink:href="#DejaVuSans-73" x="361.996094"/>
      <use xlink:href="#DejaVuSans-69" x="414.095703"/>
      <use xlink:href="#DejaVuSans-74" x="441.878906"/>
      <use xlink:href="#DejaVuSans-69" x="481.087891"/>
      <use xlink:href="#DejaVuSans-76" x="508.871094"/>
      <use xlink:href="#DejaVuSans-65" x="568.050781"/>
      <use xlink:href="#DejaVuSans-20" x="629.574219"/>
      <use xlink:href="#DejaVuSans-52" x="661.361328"/>
      <use xlink:href="#DejaVuSans-61" x="728.59375"/>
      <use xlink:href="#DejaVuSans-74" x="789.873047"/>
      <use xlink:href="#DejaVuSans-65" x="829.082031"/>
     </g>
    </g>
   </g>
   <g id="line2d_13">
    <path d="M 73.832727 295.488 
L 73.832727 285.947493 
L 74.148232 285.947493 
L 74.148232 268.570141 
L 74.463737 268.570141 
L 74.463737 250.170592 
L 74.779242 250.170592 
L 74.779242 227.341521 
L 75.094747 227.341521 
L 75.094747 202.127324 
L 75.410252 202.127324 
L 75.410252 200.764394 
L 76.041262 200.764394 
L 76.041262 198.379268 
L 76.356766 198.379268 
L 76.356766 197.697803 
L 76.672271 197.697803 
L 76.672271 197.35707 
L 76.987776 197.35707 
L 76.987776 192.927549 
L 77.303281 192.927549 
L 77.303281 192.246085 
L 77.618786 192.246085 
L 77.618786 188.498028 
L 77.934291 188.498028 
L 77.934291 187.475831 
L 78.249796 187.475831 
L 78.249796 186.112901 
L 78.565301 186.112901 
L 78.565301 185.772169 
L 78.880806 185.772169 
L 78.880806 184.409239 
L 79.196311 184.409239 
L 79.196311 184.068507 
L 79.511816 184.068507 
L 79.511816 183.04631 
L 79.82732 183.04631 
L 79.82732 180.320451 
L 80.142825 180.320451 
L 80.142825 179.979718 
L 80.45833 179.979718 
L 80.45833 178.957521 
L 80.773835 178.957521 
L 80.773835 177.253859 
L 81.08934 177.253859 
L 81.08934 174.868732 
L 81.404845 174.868732 
L 81.404845 173.846535 
L 81.72035 173.846535 
L 81.72035 171.461408 
L 82.035855 171.461408 
L 82.035855 167.713352 
L 82.35136 167.713352 
L 82.35136 167.37262 
L 82.666865 167.37262 
L 82.666865 166.00969 
L 82.982369 166.00969 
L 82.982369 162.943099 
L 83.297874 162.943099 
L 83.297874 162.602366 
L 83.928884 162.602366 
L 83.928884 160.217239 
L 84.244389 160.217239 
L 84.244389 155.787718 
L 84.559894 155.787718 
L 84.559894 154.084056 
L 84.875399 154.084056 
L 84.875399 153.743324 
L 85.190904 153.743324 
L 85.190904 153.402592 
L 85.506409 153.402592 
L 85.506409 151.358197 
L 85.821914 151.358197 
L 85.821914 146.928676 
L 86.137418 146.928676 
L 86.137418 146.587944 
L 86.452923 146.587944 
L 86.452923 145.565746 
L 87.083933 145.565746 
L 87.083933 144.884282 
L 87.399438 144.884282 
L 87.399438 144.202817 
L 87.714943 144.202817 
L 87.714943 143.521352 
L 88.661458 143.521352 
L 88.661458 142.499155 
L 88.976963 142.499155 
L 88.976963 141.81769 
L 89.292468 141.81769 
L 89.292468 140.114028 
L 89.607972 140.114028 
L 89.607972 138.410366 
L 89.923477 138.410366 
L 89.923477 137.728901 
L 90.554487 137.728901 
L 90.554487 137.388169 
L 90.869992 137.388169 
L 90.869992 137.047437 
L 91.185497 137.047437 
L 91.185497 136.706704 
L 91.816507 136.706704 
L 91.816507 134.321577 
L 92.132012 134.321577 
L 92.132012 133.640113 
L 92.447517 133.640113 
L 92.447517 133.29938 
L 92.763021 133.29938 
L 92.763021 132.958648 
L 93.078526 132.958648 
L 93.078526 131.595718 
L 94.340546 131.595718 
L 94.340546 129.892056 
L 94.656051 129.892056 
L 94.656051 129.551324 
L 94.971556 129.551324 
L 94.971556 128.529127 
L 95.602566 128.529127 
L 95.602566 127.847662 
L 96.233575 127.847662 
L 96.233575 127.50693 
L 97.18009 127.50693 
L 97.18009 126.484732 
L 97.495595 126.484732 
L 97.495595 124.440338 
L 97.8111 124.440338 
L 97.8111 123.077408 
L 98.126605 123.077408 
L 98.126605 122.736676 
L 98.44211 122.736676 
L 98.44211 122.395944 
L 98.757615 122.395944 
L 98.757615 121.373746 
L 99.388624 121.373746 
L 99.388624 118.647887 
L 100.019634 118.647887 
L 100.019634 117.62569 
L 100.335139 117.62569 
L 100.335139 116.944225 
L 100.966149 116.944225 
L 100.966149 115.581296 
L 101.597159 115.581296 
L 101.597159 115.240563 
L 102.228169 115.240563 
L 102.228169 114.218366 
L 102.859178 114.218366 
L 102.859178 113.536901 
L 103.805693 113.536901 
L 103.805693 112.855437 
L 104.436703 112.855437 
L 104.436703 112.514704 
L 106.014227 112.514704 
L 106.014227 112.173972 
L 107.276247 112.173972 
L 107.276247 111.833239 
L 108.853772 111.833239 
L 108.853772 111.151775 
L 109.800286 111.151775 
L 109.800286 110.811042 
L 110.431296 110.811042 
L 110.431296 110.47031 
L 111.062306 110.47031 
L 111.062306 110.129577 
L 111.693316 110.129577 
L 111.693316 108.766648 
L 115.16387 108.766648 
L 115.16387 107.062986 
L 116.741394 107.062986 
L 116.741394 106.722254 
L 117.372404 106.722254 
L 117.372404 106.381521 
L 118.318919 106.381521 
L 118.318919 106.040789 
L 118.949928 106.040789 
L 118.949928 105.359324 
L 120.842958 105.359324 
L 120.842958 105.018592 
L 121.158463 105.018592 
L 121.158463 104.677859 
L 122.420482 104.677859 
L 122.420482 103.996394 
L 123.366997 103.996394 
L 123.366997 103.655662 
L 123.998007 103.655662 
L 123.998007 103.31493 
L 124.629017 103.31493 
L 124.629017 102.633465 
L 125.891036 102.633465 
L 125.891036 102.292732 
L 126.522046 102.292732 
L 126.522046 101.952 
L 126.837551 101.952 
L 126.837551 101.270535 
L 127.468561 101.270535 
L 127.468561 100.248338 
L 128.099571 100.248338 
L 128.099571 99.566873 
L 133.463154 99.566873 
L 133.463154 99.226141 
L 135.040679 99.226141 
L 135.040679 98.544676 
L 136.302698 98.544676 
L 136.302698 97.522479 
L 136.618203 97.522479 
L 136.618203 97.181746 
L 136.933708 97.181746 
L 136.933708 96.841014 
L 138.826737 96.841014 
L 138.826737 96.500282 
L 139.773252 96.500282 
L 139.773252 96.159549 
L 140.719767 96.159549 
L 140.719767 95.478085 
L 141.666281 95.478085 
L 141.666281 95.137352 
L 141.981786 95.137352 
L 141.981786 94.79662 
L 142.297291 94.79662 
L 142.297291 94.455887 
L 143.559311 94.455887 
L 143.559311 94.115155 
L 146.08335 94.115155 
L 146.08335 93.43369 
L 152.077943 93.43369 
L 152.077943 93.092958 
L 153.970973 93.092958 
L 153.970973 92.411493 
L 154.601983 92.411493 
L 154.601983 91.730028 
L 154.917487 91.730028 
L 154.917487 91.389296 
L 156.179507 91.389296 
L 156.179507 91.048563 
L 156.810517 91.048563 
L 156.810517 90.707831 
L 157.126022 90.707831 
L 157.126022 90.367099 
L 157.441527 90.367099 
L 157.441527 90.026366 
L 157.757032 90.026366 
L 157.757032 89.685634 
L 158.072536 89.685634 
L 158.072536 89.344901 
L 161.54309 89.344901 
L 161.54309 89.004169 
L 162.489605 89.004169 
L 162.489605 88.663437 
L 163.120615 88.663437 
L 163.120615 88.322704 
L 163.43612 88.322704 
L 163.43612 87.641239 
L 164.382635 87.641239 
L 164.382635 87.300507 
L 165.013644 87.300507 
L 165.013644 86.959775 
L 165.644654 86.959775 
L 165.644654 86.619042 
L 166.275664 86.619042 
L 166.275664 86.27831 
L 166.906674 86.27831 
L 166.906674 85.937577 
L 168.799703 85.937577 
L 168.799703 85.596845 
L 169.430713 85.596845 
L 169.430713 85.256113 
L 169.746218 85.256113 
L 169.746218 84.91538 
L 171.323742 84.91538 
L 171.323742 84.574648 
L 171.639247 84.574648 
L 171.639247 84.233915 
L 176.056316 84.233915 
L 176.056316 83.893183 
L 176.371821 83.893183 
L 176.371821 83.552451 
L 177.318336 83.552451 
L 177.318336 83.211718 
L 180.15788 83.211718 
L 180.15788 82.870986 
L 183.312929 82.870986 
L 183.312929 82.189521 
L 185.521463 82.189521 
L 185.521463 81.848789 
L 187.414492 81.848789 
L 187.414492 81.508056 
L 189.307522 81.508056 
L 189.307522 81.167324 
L 189.938532 81.167324 
L 189.938532 80.485859 
L 190.569541 80.485859 
L 190.569541 80.145127 
L 190.885046 80.145127 
L 190.885046 79.463662 
L 191.200551 79.463662 
L 191.200551 79.12293 
L 191.516056 79.12293 
L 191.516056 78.782197 
L 193.409086 78.782197 
L 193.409086 78.441465 
L 198.141659 78.441465 
L 198.141659 77.76 
L 199.403679 77.76 
L 199.403679 77.419268 
L 200.350193 77.419268 
L 200.350193 77.078535 
L 202.874233 77.078535 
L 202.874233 76.737803 
L 203.820747 76.737803 
L 203.820747 76.39707 
L 204.767262 76.39707 
L 204.767262 76.056338 
L 211.07736 76.056338 
L 211.07736 75.715606 
L 217.702963 75.715606 
L 217.702963 75.374873 
L 229.06114 75.374873 
L 229.06114 75.034141 
L 230.323159 75.034141 
L 230.323159 74.693408 
L 231.585179 74.693408 
L 231.585179 74.352676 
L 237.264267 74.352676 
L 237.264267 74.011944 
L 241.050326 74.011944 
L 241.050326 73.330479 
L 244.205375 73.330479 
L 244.205375 72.649014 
L 245.467395 72.649014 
L 245.467395 72.308282 
L 247.675929 72.308282 
L 247.675929 71.967549 
L 251.461988 71.967549 
L 251.461988 71.626817 
L 252.408503 71.626817 
L 252.408503 71.286085 
L 253.670522 71.286085 
L 253.670522 70.945352 
L 253.986027 70.945352 
L 253.986027 70.60462 
L 258.718601 70.60462 
L 258.718601 70.263887 
L 259.034105 70.263887 
L 259.034105 69.923155 
L 259.98062 69.923155 
L 259.98062 69.582423 
L 268.499253 69.582423 
L 268.499253 69.24169 
L 273.547331 69.24169 
L 273.547331 68.900958 
L 274.178341 68.900958 
L 274.178341 68.560225 
L 275.124856 68.560225 
L 275.124856 68.219493 
L 275.755865 68.219493 
L 275.755865 67.878761 
L 283.958993 67.878761 
L 283.958993 67.538028 
L 284.905508 67.538028 
L 284.905508 66.856563 
L 285.221012 66.856563 
L 285.221012 66.515831 
L 293.108635 66.515831 
L 293.108635 66.175099 
L 296.579189 66.175099 
L 296.579189 65.834366 
L 297.525704 65.834366 
L 297.525704 65.493634 
L 301.942772 65.493634 
L 301.942772 65.152901 
L 303.204792 65.152901 
L 303.204792 64.812169 
L 308.568375 64.812169 
L 308.568375 64.471437 
L 311.092415 64.471437 
L 311.092415 64.130704 
L 321.504076 64.130704 
L 321.504076 63.789972 
L 322.135086 63.789972 
L 322.135086 63.449239 
L 327.814174 63.449239 
L 327.814174 63.108507 
L 331.600233 63.108507 
L 331.600233 62.767775 
L 335.070787 62.767775 
L 335.070787 62.427042 
L 336.332807 62.427042 
L 336.332807 62.08631 
L 337.910331 62.08631 
L 337.910331 61.404845 
L 338.225836 61.404845 
L 338.225836 61.064113 
L 345.166944 61.064113 
L 345.166944 60.72338 
L 349.899518 60.72338 
L 349.899518 60.382648 
L 351.477042 60.382648 
L 351.477042 60.041915 
L 353.054567 60.041915 
L 353.054567 59.701183 
L 353.685576 59.701183 
L 353.685576 59.360451 
L 355.263101 59.360451 
L 355.263101 59.019718 
L 357.15613 59.019718 
L 357.15613 58.678986 
L 358.41815 58.678986 
L 358.41815 58.338254 
L 358.733655 58.338254 
L 358.733655 57.997521 
L 360.311179 57.997521 
L 360.311179 57.316056 
L 361.573199 57.316056 
L 361.573199 56.975324 
L 376.086425 56.975324 
L 376.086425 56.634592 
L 379.556979 56.634592 
L 379.556979 56.293859 
L 383.027532 56.293859 
L 383.027532 55.612394 
L 389.022126 55.612394 
L 389.022126 55.271662 
L 390.284145 55.271662 
L 390.284145 54.93093 
L 391.23066 54.93093 
L 391.23066 54.590197 
L 392.49268 54.590197 
L 392.49268 54.249465 
L 395.016719 54.249465 
L 395.016719 53.908732 
L 395.963234 53.908732 
L 395.963234 53.568 
L 398.487273 53.568 
L 398.487273 53.568 
" clip-path="url(#pf076fbe8b5)" style="fill: none; stroke: #1f77b4; stroke-width: 1.5; stroke-linecap: square"/>
   </g>
   <g id="patch_3">
    <path d="M 57.6 307.584 
L 57.6 41.472 
" style="fill: none; stroke: #000000; stroke-width: 0.8; stroke-linejoin: miter; stroke-linecap: square"/>
   </g>
   <g id="patch_4">
    <path d="M 414.72 307.584 
L 414.72 41.472 
" style="fill: none; stroke: #000000; stroke-width: 0.8; stroke-linejoin: miter; stroke-linecap: square"/>
   </g>
   <g id="patch_5">
    <path d="M 57.6 307.584 
L 414.72 307.584 
" style="fill: none; stroke: #000000; stroke-width: 0.8; stroke-linejoin: miter; stroke-linecap: square"/>
   </g>
   <g id="patch_6">
    <path d="M 57.6 41.472 
L 414.72 41.472 
" style="fill: none; stroke: #000000; stroke-width: 0.8; stroke-linejoin: miter; stroke-linecap: square"/>
   </g>
   <g id="text_15">
    <!-- ROC Curve -->
    <g transform="translate(203.469375 35.472)scale(0.12 -0.12)">
     <defs>
      <path id="DejaVuSans-4f" d="M 2522 4238 
Q 1834 4238 1429 3725 
Q 1025 3213 1025 2328 
Q 1025 1447 1429 934 
Q 1834 422 2522 422 
Q 3209 422 3611 934 
Q 4013 1447 4013 2328 
Q 4013 3213 3611 3725 
Q 3209 4238 2522 4238 
z
M 2522 4750 
Q 3503 4750 4090 4092 
Q 4678 3434 4678 2328 
Q 4678 1225 4090 567 
Q 3503 -91 2522 -91 
Q 1538 -91 948 565 
Q 359 1222 359 2328 
Q 359 3434 948 4092 
Q 1538 4750 2522 4750 
z
" transform="scale(0.015625)"/>
      <path id="DejaVuSans-43" d="M 4122 4306 
L 4122 3641 
Q 3803 3938 3442 4084 
Q 3081 4231 2675 4231 
Q 1875 4231 1450 3742 
Q 1025 3253 1025 2328 
Q 1025 1406 1450 917 
Q 1875 428 2675 428 
Q 3081 428 3442 575 
Q 3803 722 4122 1019 
L 4122 359 
Q 3791 134 3420 21 
Q 3050 -91 2638 -91 
Q 1578 -91 968 557 
Q 359 1206 359 2328 
Q 359 3453 968 4101 
Q 1578 4750 2638 4750 
Q 3056 4750 3426 4639 
Q 3797 4528 4122 4306 
z
" transform="scale(0.015625)"/>
     </defs>
     <use xlink:href="#DejaVuSans-52"/>
     <use xlink:href="#DejaVuSans-4f" x="69.482422"/>
     <use xlink:href="#DejaVuSans-43" x="148.193359"/>
     <use xlink:href="#DejaVuSans-20" x="218.017578"/>
     <use xlink:href="#DejaVuSans-43" x="249.804688"/>
     <use xlink:href="#DejaVuSans-75" x="319.628906"/>
     <use xlink:href="#DejaVuSans-72" x="383.007812"/>
     <use xlink:href="#DejaVuSans-76" x="424.121094"/>
     <use xlink:href="#DejaVuSans-65" x="483.300781"/>
    </g>
   </g>
   <g id="legend_1">
    <g id="patch_7">
     <path d="M 317.57625 302.584 
L 407.72 302.584 
Q 409.72 302.584 409.72 300.584 
L 409.72 286.905875 
Q 409.72 284.905875 407.72 284.905875 
L 317.57625 284.905875 
Q 315.57625 284.905875 315.57625 286.905875 
L 315.57625 300.584 
Q 315.57625 302.584 317.57625 302.584 
z
" style="fill: #ffffff; opacity: 0.8; stroke: #cccccc; stroke-linejoin: miter"/>
    </g>
    <g id="line2d_14">
     <path d="M 319.57625 293.004312 
L 329.57625 293.004312 
L 339.57625 293.004312 
" style="fill: none; stroke: #1f77b4; stroke-width: 1.5; stroke-linecap: square"/>
    </g>
    <g id="text_16">
     <!-- AUC = 0.88 -->
     <g transform="translate(347.57625 296.504312)scale(0.1 -0.1)">
      <defs>
       <path id="DejaVuSans-41" d="M 2188 4044 
L 1331 1722 
L 3047 1722 
L 2188 4044 
z
M 1831 4666 
L 2547 4666 
L 4325 0 
L 3669 0 
L 3244 1197 
L 1141 1197 
L 716 0 
L 50 0 
L 1831 4666 
z
" transform="scale(0.015625)"/>
       <path id="DejaVuSans-55" d="M 556 4666 
L 1191 4666 
L 1191 1831 
Q 1191 1081 1462 751 
Q 1734 422 2344 422 
Q 2950 422 3222 751 
Q 3494 1081 3494 1831 
L 3494 4666 
L 4128 4666 
L 4128 1753 
Q 4128 841 3676 375 
Q 3225 -91 2344 -91 
Q 1459 -91 1007 375 
Q 556 841 556 1753 
L 556 4666 
z
" transform="scale(0.015625)"/>
       <path id="DejaVuSans-3d" d="M 678 2906 
L 4684 2906 
L 4684 2381 
L 678 2381 
L 678 2906 
z
M 678 1631 
L 4684 1631 
L 4684 1100 
L 678 1100 
L 678 1631 
z
" transform="scale(0.015625)"/>
      </defs>
      <use xlink:href="#DejaVuSans-41"/>
      <use xlink:href="#DejaVuSans-55" x="68.408203"/>
      <use xlink:href="#DejaVuSans-43" x="141.601562"/>
      <use xlink:href="#DejaVuSans-20" x="211.425781"/>
      <use xlink:href="#DejaVuSans-3d" x="243.212891"/>
      <use xlink:href="#DejaVuSans-20" x="327.001953"/>
      <use xlink:href="#DejaVuSans-30" x="358.789062"/>
      <use xlink:href="#DejaVuSans-2e" x="422.412109"/>
      <use xlink:href="#DejaVuSans-38" x="454.199219"/>
      <use xlink:href="#DejaVuSans-38" x="517.822266"/>
     </g>
    </g>
   </g>
  </g>
 </g>
 <defs>
  <clipPath id="pf076fbe8b5">
   <rect x="57.6" y="41.472" width="357.12" height="266.112"/>
  </clipPath>
 </defs>
</svg>
