<?xml version="1.0" encoding="utf-8" standalone="no"?>
<!DOCTYPE svg PUBLIC "-//W3C//DTD SVG 1.1//EN"
  "http://www.w3.org/Graphics/SVG/1.1/DTD/svg11.dtd">
<svg xmlns:xlink="http://www.w3.org/1999/xlink" width="460.8pt" height="345.6pt" viewBox="0 0 460.8 345.6" xmlns="http://www.w3.org/2000/svg" version="1.1">
 <metadata>
  <rdf:RDF xmlns:dc="http://purl.org/dc/elements/1.1/" xmlns:cc="http://creativecommons.org/ns#" xmlns:rdf="http://www.w3.org/1999/02/22-rdf-syntax-ns#">
   <cc:Work>
    <dc:type rdf:resource="http://purl.org/dc/dcmitype/StillImage"/>
    <dc:date>2022-09-10T22:25:39.800589</dc:date>
    <dc:format>image/svg+xml</dc:format>
    <dc:creator>
     <cc:Agent>
      <dc:title>Matplotlib v3.5.3, https://matplotlib.org/</dc:title>
     </cc:Agent>
    </dc:creator>
   </cc:Work>
  </rdf:RDF>
 </metadata>
 <defs>
  <style type="text/css">*{stroke-linejoin: round; stroke-linecap: butt}</style>
 </defs>
 <g id="figure_1">
  <g id="patch_1">
   <path d="M 0 345.6 
L 460.8 345.6 
L 460.8 0 
L 0 0 
z
" style="fill: #ffffff"/>
  </g>
  <g id="axes_1">
   <g id="patch_2">
    <path d="M 57.6 307.584 
L 414.72 307.584 
L 414.72 41.472 
L 57.6 41.472 
z
" style="fill: #ffffff"/>
   </g>
   <g id="matplotlib.axis_1">
    <g id="xtick_1">
     <g id="line2d_1">
      <defs>
       <path id="m9b232d97ad" d="M 0 0 
L 0 3.5 
" style="stroke: #000000; stroke-width: 0.8"/>
      </defs>
      <g>
       <use xlink:href="#m9b232d97ad" x="73.832727" y="307.584" style="stroke: #000000; stroke-width: 0.8"/>
      </g>
     </g>
     <g id="text_1">
      <!-- 0.0 -->
      <g transform="translate(65.881165 322.182437)scale(0.1 -0.1)">
       <defs>
        <path id="DejaVuSans-30" d="M 2034 4250 
Q 1547 4250 1301 3770 
Q 1056 3291 1056 2328 
Q 1056 1369 1301 889 
Q 1547 409 2034 409 
Q 2525 409 2770 889 
Q 3016 1369 3016 2328 
Q 3016 3291 2770 3770 
Q 2525 4250 2034 4250 
z
M 2034 4750 
Q 2819 4750 3233 4129 
Q 3647 3509 3647 2328 
Q 3647 1150 3233 529 
Q 2819 -91 2034 -91 
Q 1250 -91 836 529 
Q 422 1150 422 2328 
Q 422 3509 836 4129 
Q 1250 4750 2034 4750 
z
" transform="scale(0.015625)"/>
        <path id="DejaVuSans-2e" d="M 684 794 
L 1344 794 
L 1344 0 
L 684 0 
L 684 794 
z
" transform="scale(0.015625)"/>
       </defs>
       <use xlink:href="#DejaVuSans-30"/>
       <use xlink:href="#DejaVuSans-2e" x="63.623047"/>
       <use xlink:href="#DejaVuSans-30" x="95.410156"/>
      </g>
     </g>
    </g>
    <g id="xtick_2">
     <g id="line2d_2">
      <g>
       <use xlink:href="#m9b232d97ad" x="138.763636" y="307.584" style="stroke: #000000; stroke-width: 0.8"/>
      </g>
     </g>
     <g id="text_2">
      <!-- 0.2 -->
      <g transform="translate(130.812074 322.182437)scale(0.1 -0.1)">
       <defs>
        <path id="DejaVuSans-32" d="M 1228 531 
L 3431 531 
L 3431 0 
L 469 0 
L 469 531 
Q 828 903 1448 1529 
Q 2069 2156 2228 2338 
Q 2531 2678 2651 2914 
Q 2772 3150 2772 3378 
Q 2772 3750 2511 3984 
Q 2250 4219 1831 4219 
Q 1534 4219 1204 4116 
Q 875 4013 500 3803 
L 500 4441 
Q 881 4594 1212 4672 
Q 1544 4750 1819 4750 
Q 2544 4750 2975 4387 
Q 3406 4025 3406 3419 
Q 3406 3131 3298 2873 
Q 3191 2616 2906 2266 
Q 2828 2175 2409 1742 
Q 1991 1309 1228 531 
z
" transform="scale(0.015625)"/>
       </defs>
       <use xlink:href="#DejaVuSans-30"/>
       <use xlink:href="#DejaVuSans-2e" x="63.623047"/>
       <use xlink:href="#DejaVuSans-32" x="95.410156"/>
      </g>
     </g>
    </g>
    <g id="xtick_3">
     <g id="line2d_3">
      <g>
       <use xlink:href="#m9b232d97ad" x="203.694545" y="307.584" style="stroke: #000000; stroke-width: 0.8"/>
      </g>
     </g>
     <g id="text_3">
      <!-- 0.4 -->
      <g transform="translate(195.742983 322.182437)scale(0.1 -0.1)">
       <defs>
        <path id="DejaVuSans-34" d="M 2419 4116 
L 825 1625 
L 2419 1625 
L 2419 4116 
z
M 2253 4666 
L 3047 4666 
L 3047 1625 
L 3713 1625 
L 3713 1100 
L 3047 1100 
L 3047 0 
L 2419 0 
L 2419 1100 
L 313 1100 
L 313 1709 
L 2253 4666 
z
" transform="scale(0.015625)"/>
       </defs>
       <use xlink:href="#DejaVuSans-30"/>
       <use xlink:href="#DejaVuSans-2e" x="63.623047"/>
       <use xlink:href="#DejaVuSans-34" x="95.410156"/>
      </g>
     </g>
    </g>
    <g id="xtick_4">
     <g id="line2d_4">
      <g>
       <use xlink:href="#m9b232d97ad" x="268.625455" y="307.584" style="stroke: #000000; stroke-width: 0.8"/>
      </g>
     </g>
     <g id="text_4">
      <!-- 0.6 -->
      <g transform="translate(260.673892 322.182437)scale(0.1 -0.1)">
       <defs>
        <path id="DejaVuSans-36" d="M 2113 2584 
Q 1688 2584 1439 2293 
Q 1191 2003 1191 1497 
Q 1191 994 1439 701 
Q 1688 409 2113 409 
Q 2538 409 2786 701 
Q 3034 994 3034 1497 
Q 3034 2003 2786 2293 
Q 2538 2584 2113 2584 
z
M 3366 4563 
L 3366 3988 
Q 3128 4100 2886 4159 
Q 2644 4219 2406 4219 
Q 1781 4219 1451 3797 
Q 1122 3375 1075 2522 
Q 1259 2794 1537 2939 
Q 1816 3084 2150 3084 
Q 2853 3084 3261 2657 
Q 3669 2231 3669 1497 
Q 3669 778 3244 343 
Q 2819 -91 2113 -91 
Q 1303 -91 875 529 
Q 447 1150 447 2328 
Q 447 3434 972 4092 
Q 1497 4750 2381 4750 
Q 2619 4750 2861 4703 
Q 3103 4656 3366 4563 
z
" transform="scale(0.015625)"/>
       </defs>
       <use xlink:href="#DejaVuSans-30"/>
       <use xlink:href="#DejaVuSans-2e" x="63.623047"/>
       <use xlink:href="#DejaVuSans-36" x="95.410156"/>
      </g>
     </g>
    </g>
    <g id="xtick_5">
     <g id="line2d_5">
      <g>
       <use xlink:href="#m9b232d97ad" x="333.556364" y="307.584" style="stroke: #000000; stroke-width: 0.8"/>
      </g>
     </g>
     <g id="text_5">
      <!-- 0.8 -->
      <g transform="translate(325.604801 322.182437)scale(0.1 -0.1)">
       <defs>
        <path id="DejaVuSans-38" d="M 2034 2216 
Q 1584 2216 1326 1975 
Q 1069 1734 1069 1313 
Q 1069 891 1326 650 
Q 1584 409 2034 409 
Q 2484 409 2743 651 
Q 3003 894 3003 1313 
Q 3003 1734 2745 1975 
Q 2488 2216 2034 2216 
z
M 1403 2484 
Q 997 2584 770 2862 
Q 544 3141 544 3541 
Q 544 4100 942 4425 
Q 1341 4750 2034 4750 
Q 2731 4750 3128 4425 
Q 3525 4100 3525 3541 
Q 3525 3141 3298 2862 
Q 3072 2584 2669 2484 
Q 3125 2378 3379 2068 
Q 3634 1759 3634 1313 
Q 3634 634 3220 271 
Q 2806 -91 2034 -91 
Q 1263 -91 848 271 
Q 434 634 434 1313 
Q 434 1759 690 2068 
Q 947 2378 1403 2484 
z
M 1172 3481 
Q 1172 3119 1398 2916 
Q 1625 2713 2034 2713 
Q 2441 2713 2670 2916 
Q 2900 3119 2900 3481 
Q 2900 3844 2670 4047 
Q 2441 4250 2034 4250 
Q 1625 4250 1398 4047 
Q 1172 3844 1172 3481 
z
" transform="scale(0.015625)"/>
       </defs>
       <use xlink:href="#DejaVuSans-30"/>
       <use xlink:href="#DejaVuSans-2e" x="63.623047"/>
       <use xlink:href="#DejaVuSans-38" x="95.410156"/>
      </g>
     </g>
    </g>
    <g id="xtick_6">
     <g id="line2d_6">
      <g>
       <use xlink:href="#m9b232d97ad" x="398.487273" y="307.584" style="stroke: #000000; stroke-width: 0.8"/>
      </g>
     </g>
     <g id="text_6">
      <!-- 1.0 -->
      <g transform="translate(390.53571 322.182437)scale(0.1 -0.1)">
       <defs>
        <path id="DejaVuSans-31" d="M 794 531 
L 1825 531 
L 1825 4091 
L 703 3866 
L 703 4441 
L 1819 4666 
L 2450 4666 
L 2450 531 
L 3481 531 
L 3481 0 
L 794 0 
L 794 531 
z
" transform="scale(0.015625)"/>
       </defs>
       <use xlink:href="#DejaVuSans-31"/>
       <use xlink:href="#DejaVuSans-2e" x="63.623047"/>
       <use xlink:href="#DejaVuSans-30" x="95.410156"/>
      </g>
     </g>
    </g>
    <g id="text_7">
     <!-- False Positive Rate -->
     <g transform="translate(189.693594 335.860562)scale(0.1 -0.1)">
      <defs>
       <path id="DejaVuSans-46" d="M 628 4666 
L 3309 4666 
L 3309 4134 
L 1259 4134 
L 1259 2759 
L 3109 2759 
L 3109 2228 
L 1259 2228 
L 1259 0 
L 628 0 
L 628 4666 
z
" transform="scale(0.015625)"/>
       <path id="DejaVuSans-61" d="M 2194 1759 
Q 1497 1759 1228 1600 
Q 959 1441 959 1056 
Q 959 750 1161 570 
Q 1363 391 1709 391 
Q 2188 391 2477 730 
Q 2766 1069 2766 1631 
L 2766 1759 
L 2194 1759 
z
M 3341 1997 
L 3341 0 
L 2766 0 
L 2766 531 
Q 2569 213 2275 61 
Q 1981 -91 1556 -91 
Q 1019 -91 701 211 
Q 384 513 384 1019 
Q 384 1609 779 1909 
Q 1175 2209 1959 2209 
L 2766 2209 
L 2766 2266 
Q 2766 2663 2505 2880 
Q 2244 3097 1772 3097 
Q 1472 3097 1187 3025 
Q 903 2953 641 2809 
L 641 3341 
Q 956 3463 1253 3523 
Q 1550 3584 1831 3584 
Q 2591 3584 2966 3190 
Q 3341 2797 3341 1997 
z
" transform="scale(0.015625)"/>
       <path id="DejaVuSans-6c" d="M 603 4863 
L 1178 4863 
L 1178 0 
L 603 0 
L 603 4863 
z
" transform="scale(0.015625)"/>
       <path id="DejaVuSans-73" d="M 2834 3397 
L 2834 2853 
Q 2591 2978 2328 3040 
Q 2066 3103 1784 3103 
Q 1356 3103 1142 2972 
Q 928 2841 928 2578 
Q 928 2378 1081 2264 
Q 1234 2150 1697 2047 
L 1894 2003 
Q 2506 1872 2764 1633 
Q 3022 1394 3022 966 
Q 3022 478 2636 193 
Q 2250 -91 1575 -91 
Q 1294 -91 989 -36 
Q 684 19 347 128 
L 347 722 
Q 666 556 975 473 
Q 1284 391 1588 391 
Q 1994 391 2212 530 
Q 2431 669 2431 922 
Q 2431 1156 2273 1281 
Q 2116 1406 1581 1522 
L 1381 1569 
Q 847 1681 609 1914 
Q 372 2147 372 2553 
Q 372 3047 722 3315 
Q 1072 3584 1716 3584 
Q 2034 3584 2315 3537 
Q 2597 3491 2834 3397 
z
" transform="scale(0.015625)"/>
       <path id="DejaVuSans-65" d="M 3597 1894 
L 3597 1613 
L 953 1613 
Q 991 1019 1311 708 
Q 1631 397 2203 397 
Q 2534 397 2845 478 
Q 3156 559 3463 722 
L 3463 178 
Q 3153 47 2828 -22 
Q 2503 -91 2169 -91 
Q 1331 -91 842 396 
Q 353 884 353 1716 
Q 353 2575 817 3079 
Q 1281 3584 2069 3584 
Q 2775 3584 3186 3129 
Q 3597 2675 3597 1894 
z
M 3022 2063 
Q 3016 2534 2758 2815 
Q 2500 3097 2075 3097 
Q 1594 3097 1305 2825 
Q 1016 2553 972 2059 
L 3022 2063 
z
" transform="scale(0.015625)"/>
       <path id="DejaVuSans-20" transform="scale(0.015625)"/>
       <path id="DejaVuSans-50" d="M 1259 4147 
L 1259 2394 
L 2053 2394 
Q 2494 2394 2734 2622 
Q 2975 2850 2975 3272 
Q 2975 3691 2734 3919 
Q 2494 4147 2053 4147 
L 1259 4147 
z
M 628 4666 
L 2053 4666 
Q 2838 4666 3239 4311 
Q 3641 3956 3641 3272 
Q 3641 2581 3239 2228 
Q 2838 1875 2053 1875 
L 1259 1875 
L 1259 0 
L 628 0 
L 628 4666 
z
" transform="scale(0.015625)"/>
       <path id="DejaVuSans-6f" d="M 1959 3097 
Q 1497 3097 1228 2736 
Q 959 2375 959 1747 
Q 959 1119 1226 758 
Q 1494 397 1959 397 
Q 2419 397 2687 759 
Q 2956 1122 2956 1747 
Q 2956 2369 2687 2733 
Q 2419 3097 1959 3097 
z
M 1959 3584 
Q 2709 3584 3137 3096 
Q 3566 2609 3566 1747 
Q 3566 888 3137 398 
Q 2709 -91 1959 -91 
Q 1206 -91 779 398 
Q 353 888 353 1747 
Q 353 2609 779 3096 
Q 1206 3584 1959 3584 
z
" transform="scale(0.015625)"/>
       <path id="DejaVuSans-69" d="M 603 3500 
L 1178 3500 
L 1178 0 
L 603 0 
L 603 3500 
z
M 603 4863 
L 1178 4863 
L 1178 4134 
L 603 4134 
L 603 4863 
z
" transform="scale(0.015625)"/>
       <path id="DejaVuSans-74" d="M 1172 4494 
L 1172 3500 
L 2356 3500 
L 2356 3053 
L 1172 3053 
L 1172 1153 
Q 1172 725 1289 603 
Q 1406 481 1766 481 
L 2356 481 
L 2356 0 
L 1766 0 
Q 1100 0 847 248 
Q 594 497 594 1153 
L 594 3053 
L 172 3053 
L 172 3500 
L 594 3500 
L 594 4494 
L 1172 4494 
z
" transform="scale(0.015625)"/>
       <path id="DejaVuSans-76" d="M 191 3500 
L 800 3500 
L 1894 563 
L 2988 3500 
L 3597 3500 
L 2284 0 
L 1503 0 
L 191 3500 
z
" transform="scale(0.015625)"/>
       <path id="DejaVuSans-52" d="M 2841 2188 
Q 3044 2119 3236 1894 
Q 3428 1669 3622 1275 
L 4263 0 
L 3584 0 
L 2988 1197 
Q 2756 1666 2539 1819 
Q 2322 1972 1947 1972 
L 1259 1972 
L 1259 0 
L 628 0 
L 628 4666 
L 2053 4666 
Q 2853 4666 3247 4331 
Q 3641 3997 3641 3322 
Q 3641 2881 3436 2590 
Q 3231 2300 2841 2188 
z
M 1259 4147 
L 1259 2491 
L 2053 2491 
Q 2509 2491 2742 2702 
Q 2975 2913 2975 3322 
Q 2975 3731 2742 3939 
Q 2509 4147 2053 4147 
L 1259 4147 
z
" transform="scale(0.015625)"/>
      </defs>
      <use xlink:href="#DejaVuSans-46"/>
      <use xlink:href="#DejaVuSans-61" x="48.394531"/>
      <use xlink:href="#DejaVuSans-6c" x="109.673828"/>
      <use xlink:href="#DejaVuSans-73" x="137.457031"/>
      <use xlink:href="#DejaVuSans-65" x="189.556641"/>
      <use xlink:href="#DejaVuSans-20" x="251.080078"/>
      <use xlink:href="#DejaVuSans-50" x="282.867188"/>
      <use xlink:href="#DejaVuSans-6f" x="339.544922"/>
      <use xlink:href="#DejaVuSans-73" x="400.726562"/>
      <use xlink:href="#DejaVuSans-69" x="452.826172"/>
      <use xlink:href="#DejaVuSans-74" x="480.609375"/>
      <use xlink:href="#DejaVuSans-69" x="519.818359"/>
      <use xlink:href="#DejaVuSans-76" x="547.601562"/>
      <use xlink:href="#DejaVuSans-65" x="606.78125"/>
      <use xlink:href="#DejaVuSans-20" x="668.304688"/>
      <use xlink:href="#DejaVuSans-52" x="700.091797"/>
      <use xlink:href="#DejaVuSans-61" x="767.324219"/>
      <use xlink:href="#DejaVuSans-74" x="828.603516"/>
      <use xlink:href="#DejaVuSans-65" x="867.8125"/>
     </g>
    </g>
   </g>
   <g id="matplotlib.axis_2">
    <g id="ytick_1">
     <g id="line2d_7">
      <defs>
       <path id="mfd44045f0a" d="M 0 0 
L -3.5 0 
" style="stroke: #000000; stroke-width: 0.8"/>
      </defs>
      <g>
       <use xlink:href="#mfd44045f0a" x="57.6" y="295.488" style="stroke: #000000; stroke-width: 0.8"/>
      </g>
     </g>
     <g id="text_8">
      <!-- 0.0 -->
      <g transform="translate(34.696875 299.287219)scale(0.1 -0.1)">
       <use xlink:href="#DejaVuSans-30"/>
       <use xlink:href="#DejaVuSans-2e" x="63.623047"/>
       <use xlink:href="#DejaVuSans-30" x="95.410156"/>
      </g>
     </g>
    </g>
    <g id="ytick_2">
     <g id="line2d_8">
      <g>
       <use xlink:href="#mfd44045f0a" x="57.6" y="247.104" style="stroke: #000000; stroke-width: 0.8"/>
      </g>
     </g>
     <g id="text_9">
      <!-- 0.2 -->
      <g transform="translate(34.696875 250.903219)scale(0.1 -0.1)">
       <use xlink:href="#DejaVuSans-30"/>
       <use xlink:href="#DejaVuSans-2e" x="63.623047"/>
       <use xlink:href="#DejaVuSans-32" x="95.410156"/>
      </g>
     </g>
    </g>
    <g id="ytick_3">
     <g id="line2d_9">
      <g>
       <use xlink:href="#mfd44045f0a" x="57.6" y="198.72" style="stroke: #000000; stroke-width: 0.8"/>
      </g>
     </g>
     <g id="text_10">
      <!-- 0.4 -->
      <g transform="translate(34.696875 202.519219)scale(0.1 -0.1)">
       <use xlink:href="#DejaVuSans-30"/>
       <use xlink:href="#DejaVuSans-2e" x="63.623047"/>
       <use xlink:href="#DejaVuSans-34" x="95.410156"/>
      </g>
     </g>
    </g>
    <g id="ytick_4">
     <g id="line2d_10">
      <g>
       <use xlink:href="#mfd44045f0a" x="57.6" y="150.336" style="stroke: #000000; stroke-width: 0.8"/>
      </g>
     </g>
     <g id="text_11">
      <!-- 0.6 -->
      <g transform="translate(34.696875 154.135219)scale(0.1 -0.1)">
       <use xlink:href="#DejaVuSans-30"/>
       <use xlink:href="#DejaVuSans-2e" x="63.623047"/>
       <use xlink:href="#DejaVuSans-36" x="95.410156"/>
      </g>
     </g>
    </g>
    <g id="ytick_5">
     <g id="line2d_11">
      <g>
       <use xlink:href="#mfd44045f0a" x="57.6" y="101.952" style="stroke: #000000; stroke-width: 0.8"/>
      </g>
     </g>
     <g id="text_12">
      <!-- 0.8 -->
      <g transform="translate(34.696875 105.751219)scale(0.1 -0.1)">
       <use xlink:href="#DejaVuSans-30"/>
       <use xlink:href="#DejaVuSans-2e" x="63.623047"/>
       <use xlink:href="#DejaVuSans-38" x="95.410156"/>
      </g>
     </g>
    </g>
    <g id="ytick_6">
     <g id="line2d_12">
      <g>
       <use xlink:href="#mfd44045f0a" x="57.6" y="53.568" style="stroke: #000000; stroke-width: 0.8"/>
      </g>
     </g>
     <g id="text_13">
      <!-- 1.0 -->
      <g transform="translate(34.696875 57.367219)scale(0.1 -0.1)">
       <use xlink:href="#DejaVuSans-31"/>
       <use xlink:href="#DejaVuSans-2e" x="63.623047"/>
       <use xlink:href="#DejaVuSans-30" x="95.410156"/>
      </g>
     </g>
    </g>
    <g id="text_14">
     <!-- True Positive Rate -->
     <g transform="translate(28.617187 219.057687)rotate(-90)scale(0.1 -0.1)">
      <defs>
       <path id="DejaVuSans-54" d="M -19 4666 
L 3928 4666 
L 3928 4134 
L 2272 4134 
L 2272 0 
L 1638 0 
L 1638 4134 
L -19 4134 
L -19 4666 
z
" transform="scale(0.015625)"/>
       <path id="DejaVuSans-72" d="M 2631 2963 
Q 2534 3019 2420 3045 
Q 2306 3072 2169 3072 
Q 1681 3072 1420 2755 
Q 1159 2438 1159 1844 
L 1159 0 
L 581 0 
L 581 3500 
L 1159 3500 
L 1159 2956 
Q 1341 3275 1631 3429 
Q 1922 3584 2338 3584 
Q 2397 3584 2469 3576 
Q 2541 3569 2628 3553 
L 2631 2963 
z
" transform="scale(0.015625)"/>
       <path id="DejaVuSans-75" d="M 544 1381 
L 544 3500 
L 1119 3500 
L 1119 1403 
Q 1119 906 1312 657 
Q 1506 409 1894 409 
Q 2359 409 2629 706 
Q 2900 1003 2900 1516 
L 2900 3500 
L 3475 3500 
L 3475 0 
L 2900 0 
L 2900 538 
Q 2691 219 2414 64 
Q 2138 -91 1772 -91 
Q 1169 -91 856 284 
Q 544 659 544 1381 
z
M 1991 3584 
L 1991 3584 
z
" transform="scale(0.015625)"/>
      </defs>
      <use xlink:href="#DejaVuSans-54"/>
      <use xlink:href="#DejaVuSans-72" x="46.333984"/>
      <use xlink:href="#DejaVuSans-75" x="87.447266"/>
      <use xlink:href="#DejaVuSans-65" x="150.826172"/>
      <use xlink:href="#DejaVuSans-20" x="212.349609"/>
      <use xlink:href="#DejaVuSans-50" x="244.136719"/>
      <use xlink:href="#DejaVuSans-6f" x="300.814453"/>
      <use xlink:href="#DejaVuSans-73" x="361.996094"/>
      <use xlink:href="#DejaVuSans-69" x="414.095703"/>
      <use xlink:href="#DejaVuSans-74" x="441.878906"/>
      <use xlink:href="#DejaVuSans-69" x="481.087891"/>
      <use xlink:href="#DejaVuSans-76" x="508.871094"/>
      <use xlink:href="#DejaVuSans-65" x="568.050781"/>
      <use xlink:href="#DejaVuSans-20" x="629.574219"/>
      <use xlink:href="#DejaVuSans-52" x="661.361328"/>
      <use xlink:href="#DejaVuSans-61" x="728.59375"/>
      <use xlink:href="#DejaVuSans-74" x="789.873047"/>
      <use xlink:href="#DejaVuSans-65" x="829.082031"/>
     </g>
    </g>
   </g>
   <g id="line2d_13">
    <path d="M 73.832727 295.488 
L 73.832727 251.733508 
L 74.142808 251.733508 
L 74.142808 230.844266 
L 74.452889 230.844266 
L 74.452889 210.237312 
L 74.76297 210.237312 
L 74.76297 207.696728 
L 75.07305 207.696728 
L 75.07305 203.180135 
L 75.383131 203.180135 
L 75.383131 188.783496 
L 75.693212 188.783496 
L 75.693212 186.5252 
L 76.003293 186.5252 
L 76.003293 184.54919 
L 76.313373 184.54919 
L 76.313373 182.290894 
L 76.623454 182.290894 
L 76.623454 171.563986 
L 76.933535 171.563986 
L 76.933535 170.434838 
L 77.243616 170.434838 
L 77.243616 169.870264 
L 77.553696 169.870264 
L 77.553696 166.765106 
L 77.863777 166.765106 
L 77.863777 166.200532 
L 78.173858 166.200532 
L 78.173858 165.071384 
L 78.483939 165.071384 
L 78.483939 158.578782 
L 78.794019 158.578782 
L 78.794019 156.602772 
L 79.1041 156.602772 
L 79.1041 156.038198 
L 79.724262 156.038198 
L 79.724262 155.191337 
L 80.034342 155.191337 
L 80.034342 154.626763 
L 80.344423 154.626763 
L 80.344423 153.779902 
L 80.654504 153.779902 
L 80.654504 152.650754 
L 80.964585 152.650754 
L 80.964585 150.392457 
L 81.274665 150.392457 
L 81.274665 148.698735 
L 81.584746 148.698735 
L 81.584746 148.134161 
L 82.204908 148.134161 
L 82.204908 145.875865 
L 82.514988 145.875865 
L 82.514988 144.182142 
L 82.825069 144.182142 
L 82.825069 143.617568 
L 83.13515 143.617568 
L 83.13515 143.335281 
L 83.445231 143.335281 
L 83.445231 138.254114 
L 83.755311 138.254114 
L 83.755311 136.560392 
L 84.065392 136.560392 
L 84.065392 135.431244 
L 84.375473 135.431244 
L 84.375473 134.302096 
L 84.685554 134.302096 
L 84.685554 134.019809 
L 85.615796 134.019809 
L 85.615796 133.172947 
L 85.925877 133.172947 
L 85.925877 132.326086 
L 86.235957 132.326086 
L 86.235957 132.043799 
L 86.856119 132.043799 
L 86.856119 131.196938 
L 87.47628 131.196938 
L 87.47628 129.785503 
L 87.786361 129.785503 
L 87.786361 127.809494 
L 88.096442 127.809494 
L 88.096442 127.527207 
L 88.716603 127.527207 
L 88.716603 126.962632 
L 89.646846 126.962632 
L 89.646846 126.680345 
L 89.956926 126.680345 
L 89.956926 126.115771 
L 90.577088 126.115771 
L 90.577088 124.986623 
L 90.887169 124.986623 
L 90.887169 124.139762 
L 91.197249 124.139762 
L 91.197249 121.599179 
L 91.50733 121.599179 
L 91.50733 121.034604 
L 92.437572 121.034604 
L 92.437572 120.47003 
L 92.747653 120.47003 
L 92.747653 120.187743 
L 93.367815 120.187743 
L 93.367815 119.905456 
L 93.677895 119.905456 
L 93.677895 118.776308 
L 93.987976 118.776308 
L 93.987976 118.494021 
L 94.608138 118.494021 
L 94.608138 117.64716 
L 94.918218 117.64716 
L 94.918218 117.082586 
L 95.53838 117.082586 
L 95.53838 116.800299 
L 96.778703 116.800299 
L 96.778703 115.671151 
L 97.708945 115.671151 
L 97.708945 114.259715 
L 98.639187 114.259715 
L 98.639187 113.977428 
L 98.949268 113.977428 
L 98.949268 113.695141 
L 100.189591 113.695141 
L 100.189591 113.130567 
L 100.809753 113.130567 
L 100.809753 112.84828 
L 101.429914 112.84828 
L 101.429914 112.565993 
L 102.050076 112.565993 
L 102.050076 112.283706 
L 102.360156 112.283706 
L 102.360156 112.001419 
L 103.290399 112.001419 
L 103.290399 111.436845 
L 103.91056 111.436845 
L 103.91056 111.154558 
L 104.220641 111.154558 
L 104.220641 110.307697 
L 105.150883 110.307697 
L 105.150883 109.743123 
L 105.460964 109.743123 
L 105.460964 108.613974 
L 106.081125 108.613974 
L 106.081125 107.484826 
L 106.391206 107.484826 
L 106.391206 106.355678 
L 107.011368 106.355678 
L 107.011368 106.073391 
L 108.251691 106.073391 
L 108.251691 105.508817 
L 108.561771 105.508817 
L 108.561771 104.944243 
L 108.871852 104.944243 
L 108.871852 104.661956 
L 109.802094 104.661956 
L 109.802094 104.097382 
L 110.112175 104.097382 
L 110.112175 103.815095 
L 111.97266 103.815095 
L 111.97266 103.532807 
L 112.592821 103.532807 
L 112.592821 103.25052 
L 112.902902 103.25052 
L 112.902902 102.968233 
L 114.143225 102.968233 
L 114.143225 102.685946 
L 114.763386 102.685946 
L 114.763386 102.121372 
L 115.073467 102.121372 
L 115.073467 101.839085 
L 115.693629 101.839085 
L 115.693629 101.274511 
L 116.003709 101.274511 
L 116.003709 100.709937 
L 118.794436 100.709937 
L 118.794436 100.42765 
L 119.104517 100.42765 
L 119.104517 99.863076 
L 119.724678 99.863076 
L 119.724678 98.733928 
L 120.34484 98.733928 
L 120.34484 97.604779 
L 122.825486 97.604779 
L 122.825486 97.040205 
L 123.445647 97.040205 
L 123.445647 96.475631 
L 123.755728 96.475631 
L 123.755728 96.193344 
L 124.996051 96.193344 
L 124.996051 95.346483 
L 125.306132 95.346483 
L 125.306132 95.064196 
L 125.616213 95.064196 
L 125.616213 94.781909 
L 127.166616 94.781909 
L 127.166616 94.499622 
L 128.71702 94.499622 
L 128.71702 93.652761 
L 129.337182 93.652761 
L 129.337182 93.370474 
L 129.957343 93.370474 
L 129.957343 93.088187 
L 134.298474 93.088187 
L 134.298474 92.8059 
L 135.848877 92.8059 
L 135.848877 92.523613 
L 136.158958 92.523613 
L 136.158958 92.241326 
L 136.469039 92.241326 
L 136.469039 91.676751 
L 137.399281 91.676751 
L 137.399281 91.394464 
L 138.019443 91.394464 
L 138.019443 90.82989 
L 142.360573 90.82989 
L 142.360573 90.547603 
L 142.980735 90.547603 
L 142.980735 90.265316 
L 146.701704 90.265316 
L 146.701704 89.983029 
L 151.973076 89.983029 
L 151.973076 89.700742 
L 154.143642 89.700742 
L 154.143642 89.136168 
L 154.453722 89.136168 
L 154.453722 88.571594 
L 156.004126 88.571594 
L 156.004126 88.289307 
L 156.934368 88.289307 
L 156.934368 88.00702 
L 158.484772 88.00702 
L 158.484772 87.442446 
L 159.104934 87.442446 
L 159.104934 87.160159 
L 159.415014 87.160159 
L 159.415014 86.877872 
L 160.035176 86.877872 
L 160.035176 86.595585 
L 160.965418 86.595585 
L 160.965418 86.031011 
L 162.205741 86.031011 
L 162.205741 85.748723 
L 163.446064 85.748723 
L 163.446064 85.184149 
L 164.066226 85.184149 
L 164.066226 84.901862 
L 165.616629 84.901862 
L 165.616629 84.337288 
L 167.787195 84.337288 
L 167.787195 84.055001 
L 168.407356 84.055001 
L 168.407356 83.490427 
L 169.337598 83.490427 
L 169.337598 83.20814 
L 170.577921 83.20814 
L 170.577921 82.643566 
L 174.919052 82.643566 
L 174.919052 82.361279 
L 175.229133 82.361279 
L 175.229133 81.796705 
L 177.399698 81.796705 
L 177.399698 81.514418 
L 178.019859 81.514418 
L 178.019859 81.232131 
L 181.120667 81.232131 
L 181.120667 80.949844 
L 182.050909 80.949844 
L 182.050909 80.667557 
L 182.36099 80.667557 
L 182.36099 80.38527 
L 183.291232 80.38527 
L 183.291232 80.102982 
L 185.461797 80.102982 
L 185.461797 79.820695 
L 186.39204 79.820695 
L 186.39204 79.538408 
L 189.182766 79.538408 
L 189.182766 79.256121 
L 190.73317 79.256121 
L 190.73317 78.973834 
L 191.353332 78.973834 
L 191.353332 78.691547 
L 191.973493 78.691547 
L 191.973493 78.40926 
L 192.903735 78.40926 
L 192.903735 78.126973 
L 193.213816 78.126973 
L 193.213816 77.844686 
L 194.144058 77.844686 
L 194.144058 77.280112 
L 198.485189 77.280112 
L 198.485189 76.433251 
L 199.415431 76.433251 
L 199.415431 76.150964 
L 202.206158 76.150964 
L 202.206158 75.868677 
L 202.826319 75.868677 
L 202.826319 75.58639 
L 207.787611 75.58639 
L 207.787611 75.304103 
L 208.097692 75.304103 
L 208.097692 75.021816 
L 209.338015 75.021816 
L 209.338015 74.739529 
L 209.648096 74.739529 
L 209.648096 74.174954 
L 212.128742 74.174954 
L 212.128742 73.892667 
L 214.919469 73.892667 
L 214.919469 73.61038 
L 217.090034 73.61038 
L 217.090034 73.328093 
L 217.400115 73.328093 
L 217.400115 73.045806 
L 218.020276 73.045806 
L 218.020276 72.481232 
L 218.330357 72.481232 
L 218.330357 71.916658 
L 218.640438 71.916658 
L 218.640438 71.634371 
L 220.500922 71.634371 
L 220.500922 71.352084 
L 220.811003 71.352084 
L 220.811003 71.069797 
L 223.291649 71.069797 
L 223.291649 70.78751 
L 224.531972 70.78751 
L 224.531972 70.505223 
L 225.772295 70.505223 
L 225.772295 70.222936 
L 231.353748 70.222936 
L 231.353748 69.940649 
L 231.663829 69.940649 
L 231.663829 69.658362 
L 231.97391 69.658362 
L 231.97391 69.376075 
L 233.524314 69.376075 
L 233.524314 69.093788 
L 236.31504 69.093788 
L 236.31504 68.811501 
L 246.547705 68.811501 
L 246.547705 68.529214 
L 249.958593 68.529214 
L 249.958593 67.964639 
L 251.198916 67.964639 
L 251.198916 67.400065 
L 251.508997 67.400065 
L 251.508997 67.117778 
L 254.299724 67.117778 
L 254.299724 66.553204 
L 254.919885 66.553204 
L 254.919885 66.270917 
L 256.470289 66.270917 
L 256.470289 65.98863 
L 258.330774 65.98863 
L 258.330774 65.706343 
L 260.501339 65.706343 
L 260.501339 65.424056 
L 267.013035 65.424056 
L 267.013035 65.141769 
L 268.253358 65.141769 
L 268.253358 64.859482 
L 269.803761 64.859482 
L 269.803761 64.294908 
L 270.423923 64.294908 
L 270.423923 64.012621 
L 272.904569 64.012621 
L 272.904569 63.730334 
L 273.52473 63.730334 
L 273.52473 63.448047 
L 274.765053 63.448047 
L 274.765053 63.16576 
L 275.695296 63.16576 
L 275.695296 62.883473 
L 276.315457 62.883473 
L 276.315457 62.601186 
L 276.625538 62.601186 
L 276.625538 62.318898 
L 280.036426 62.318898 
L 280.036426 62.036611 
L 280.656588 62.036611 
L 280.656588 61.754324 
L 282.206991 61.754324 
L 282.206991 61.472037 
L 285.307799 61.472037 
L 285.307799 61.18975 
L 288.098526 61.18975 
L 288.098526 60.907463 
L 293.369898 60.907463 
L 293.369898 60.625176 
L 297.711029 60.625176 
L 297.711029 60.060602 
L 302.052159 60.060602 
L 302.052159 59.778315 
L 306.083209 59.778315 
L 306.083209 59.496028 
L 307.633613 59.496028 
L 307.633613 59.213741 
L 307.943694 59.213741 
L 307.943694 58.931454 
L 313.215066 58.931454 
L 313.215066 58.649167 
L 313.525147 58.649167 
L 313.525147 58.36688 
L 316.315874 58.36688 
L 316.315874 58.084593 
L 318.486439 58.084593 
L 318.486439 57.802306 
L 327.1687 57.802306 
L 327.1687 57.520019 
L 330.579588 57.520019 
L 330.579588 57.237732 
L 337.091284 57.237732 
L 337.091284 56.673158 
L 337.711446 56.673158 
L 337.711446 56.39087 
L 345.153384 56.39087 
L 345.153384 56.108583 
L 345.773545 56.108583 
L 345.773545 55.826296 
L 354.455806 55.826296 
L 354.455806 55.544009 
L 361.897744 55.544009 
L 361.897744 55.261722 
L 363.138067 55.261722 
L 363.138067 54.979435 
L 367.169117 54.979435 
L 367.169117 54.697148 
L 367.789278 54.697148 
L 367.789278 54.414861 
L 379.572347 54.414861 
L 379.572347 54.132574 
L 386.704204 54.132574 
L 386.704204 53.850287 
L 391.975577 53.850287 
L 391.975577 53.568 
L 398.487273 53.568 
L 398.487273 53.568 
" clip-path="url(#p00b23378d5)" style="fill: none; stroke: #1f77b4; stroke-width: 1.5; stroke-linecap: square"/>
   </g>
   <g id="patch_3">
    <path d="M 57.6 307.584 
L 57.6 41.472 
" style="fill: none; stroke: #000000; stroke-width: 0.8; stroke-linejoin: miter; stroke-linecap: square"/>
   </g>
   <g id="patch_4">
    <path d="M 414.72 307.584 
L 414.72 41.472 
" style="fill: none; stroke: #000000; stroke-width: 0.8; stroke-linejoin: miter; stroke-linecap: square"/>
   </g>
   <g id="patch_5">
    <path d="M 57.6 307.584 
L 414.72 307.584 
" style="fill: none; stroke: #000000; stroke-width: 0.8; stroke-linejoin: miter; stroke-linecap: square"/>
   </g>
   <g id="patch_6">
    <path d="M 57.6 41.472 
L 414.72 41.472 
" style="fill: none; stroke: #000000; stroke-width: 0.8; stroke-linejoin: miter; stroke-linecap: square"/>
   </g>
   <g id="text_15">
    <!-- ROC Curve -->
    <g transform="translate(203.469375 35.472)scale(0.12 -0.12)">
     <defs>
      <path id="DejaVuSans-4f" d="M 2522 4238 
Q 1834 4238 1429 3725 
Q 1025 3213 1025 2328 
Q 1025 1447 1429 934 
Q 1834 422 2522 422 
Q 3209 422 3611 934 
Q 4013 1447 4013 2328 
Q 4013 3213 3611 3725 
Q 3209 4238 2522 4238 
z
M 2522 4750 
Q 3503 4750 4090 4092 
Q 4678 3434 4678 2328 
Q 4678 1225 4090 567 
Q 3503 -91 2522 -91 
Q 1538 -91 948 565 
Q 359 1222 359 2328 
Q 359 3434 948 4092 
Q 1538 4750 2522 4750 
z
" transform="scale(0.015625)"/>
      <path id="DejaVuSans-43" d="M 4122 4306 
L 4122 3641 
Q 3803 3938 3442 4084 
Q 3081 4231 2675 4231 
Q 1875 4231 1450 3742 
Q 1025 3253 1025 2328 
Q 1025 1406 1450 917 
Q 1875 428 2675 428 
Q 3081 428 3442 575 
Q 3803 722 4122 1019 
L 4122 359 
Q 3791 134 3420 21 
Q 3050 -91 2638 -91 
Q 1578 -91 968 557 
Q 359 1206 359 2328 
Q 359 3453 968 4101 
Q 1578 4750 2638 4750 
Q 3056 4750 3426 4639 
Q 3797 4528 4122 4306 
z
" transform="scale(0.015625)"/>
     </defs>
     <use xlink:href="#DejaVuSans-52"/>
     <use xlink:href="#DejaVuSans-4f" x="69.482422"/>
     <use xlink:href="#DejaVuSans-43" x="148.193359"/>
     <use xlink:href="#DejaVuSans-20" x="218.017578"/>
     <use xlink:href="#DejaVuSans-43" x="249.804688"/>
     <use xlink:href="#DejaVuSans-75" x="319.628906"/>
     <use xlink:href="#DejaVuSans-72" x="383.007812"/>
     <use xlink:href="#DejaVuSans-76" x="424.121094"/>
     <use xlink:href="#DejaVuSans-65" x="483.300781"/>
    </g>
   </g>
   <g id="legend_1">
    <g id="patch_7">
     <path d="M 317.57625 302.584 
L 407.72 302.584 
Q 409.72 302.584 409.72 300.584 
L 409.72 286.905875 
Q 409.72 284.905875 407.72 284.905875 
L 317.57625 284.905875 
Q 315.57625 284.905875 315.57625 286.905875 
L 315.57625 300.584 
Q 315.57625 302.584 317.57625 302.584 
z
" style="fill: #ffffff; opacity: 0.8; stroke: #cccccc; stroke-linejoin: miter"/>
    </g>
    <g id="line2d_14">
     <path d="M 319.57625 293.004312 
L 329.57625 293.004312 
L 339.57625 293.004312 
" style="fill: none; stroke: #1f77b4; stroke-width: 1.5; stroke-linecap: square"/>
    </g>
    <g id="text_16">
     <!-- AUC = 0.90 -->
     <g transform="translate(347.57625 296.504312)scale(0.1 -0.1)">
      <defs>
       <path id="DejaVuSans-41" d="M 2188 4044 
L 1331 1722 
L 3047 1722 
L 2188 4044 
z
M 1831 4666 
L 2547 4666 
L 4325 0 
L 3669 0 
L 3244 1197 
L 1141 1197 
L 716 0 
L 50 0 
L 1831 4666 
z
" transform="scale(0.015625)"/>
       <path id="DejaVuSans-55" d="M 556 4666 
L 1191 4666 
L 1191 1831 
Q 1191 1081 1462 751 
Q 1734 422 2344 422 
Q 2950 422 3222 751 
Q 3494 1081 3494 1831 
L 3494 4666 
L 4128 4666 
L 4128 1753 
Q 4128 841 3676 375 
Q 3225 -91 2344 -91 
Q 1459 -91 1007 375 
Q 556 841 556 1753 
L 556 4666 
z
" transform="scale(0.015625)"/>
       <path id="DejaVuSans-3d" d="M 678 2906 
L 4684 2906 
L 4684 2381 
L 678 2381 
L 678 2906 
z
M 678 1631 
L 4684 1631 
L 4684 1100 
L 678 1100 
L 678 1631 
z
" transform="scale(0.015625)"/>
       <path id="DejaVuSans-39" d="M 703 97 
L 703 672 
Q 941 559 1184 500 
Q 1428 441 1663 441 
Q 2288 441 2617 861 
Q 2947 1281 2994 2138 
Q 2813 1869 2534 1725 
Q 2256 1581 1919 1581 
Q 1219 1581 811 2004 
Q 403 2428 403 3163 
Q 403 3881 828 4315 
Q 1253 4750 1959 4750 
Q 2769 4750 3195 4129 
Q 3622 3509 3622 2328 
Q 3622 1225 3098 567 
Q 2575 -91 1691 -91 
Q 1453 -91 1209 -44 
Q 966 3 703 97 
z
M 1959 2075 
Q 2384 2075 2632 2365 
Q 2881 2656 2881 3163 
Q 2881 3666 2632 3958 
Q 2384 4250 1959 4250 
Q 1534 4250 1286 3958 
Q 1038 3666 1038 3163 
Q 1038 2656 1286 2365 
Q 1534 2075 1959 2075 
z
" transform="scale(0.015625)"/>
      </defs>
      <use xlink:href="#DejaVuSans-41"/>
      <use xlink:href="#DejaVuSans-55" x="68.408203"/>
      <use xlink:href="#DejaVuSans-43" x="141.601562"/>
      <use xlink:href="#DejaVuSans-20" x="211.425781"/>
      <use xlink:href="#DejaVuSans-3d" x="243.212891"/>
      <use xlink:href="#DejaVuSans-20" x="327.001953"/>
      <use xlink:href="#DejaVuSans-30" x="358.789062"/>
      <use xlink:href="#DejaVuSans-2e" x="422.412109"/>
      <use xlink:href="#DejaVuSans-39" x="454.199219"/>
      <use xlink:href="#DejaVuSans-30" x="517.822266"/>
     </g>
    </g>
   </g>
  </g>
 </g>
 <defs>
  <clipPath id="p00b23378d5">
   <rect x="57.6" y="41.472" width="357.12" height="266.112"/>
  </clipPath>
 </defs>
</svg>
