<?xml version="1.0" encoding="utf-8" standalone="no"?>
<!DOCTYPE svg PUBLIC "-//W3C//DTD SVG 1.1//EN"
  "http://www.w3.org/Graphics/SVG/1.1/DTD/svg11.dtd">
<svg xmlns:xlink="http://www.w3.org/1999/xlink" width="460.8pt" height="345.6pt" viewBox="0 0 460.8 345.6" xmlns="http://www.w3.org/2000/svg" version="1.1">
 <metadata>
  <rdf:RDF xmlns:dc="http://purl.org/dc/elements/1.1/" xmlns:cc="http://creativecommons.org/ns#" xmlns:rdf="http://www.w3.org/1999/02/22-rdf-syntax-ns#">
   <cc:Work>
    <dc:type rdf:resource="http://purl.org/dc/dcmitype/StillImage"/>
    <dc:date>2022-09-11T03:46:44.121213</dc:date>
    <dc:format>image/svg+xml</dc:format>
    <dc:creator>
     <cc:Agent>
      <dc:title>Matplotlib v3.5.3, https://matplotlib.org/</dc:title>
     </cc:Agent>
    </dc:creator>
   </cc:Work>
  </rdf:RDF>
 </metadata>
 <defs>
  <style type="text/css">*{stroke-linejoin: round; stroke-linecap: butt}</style>
 </defs>
 <g id="figure_1">
  <g id="patch_1">
   <path d="M 0 345.6 
L 460.8 345.6 
L 460.8 0 
L 0 0 
z
" style="fill: #ffffff"/>
  </g>
  <g id="axes_1">
   <g id="patch_2">
    <path d="M 57.6 307.584 
L 414.72 307.584 
L 414.72 41.472 
L 57.6 41.472 
z
" style="fill: #ffffff"/>
   </g>
   <g id="matplotlib.axis_1">
    <g id="xtick_1">
     <g id="line2d_1">
      <defs>
       <path id="md29ad0aa41" d="M 0 0 
L 0 3.5 
" style="stroke: #000000; stroke-width: 0.8"/>
      </defs>
      <g>
       <use xlink:href="#md29ad0aa41" x="73.832727" y="307.584" style="stroke: #000000; stroke-width: 0.8"/>
      </g>
     </g>
     <g id="text_1">
      <!-- 0.0 -->
      <g transform="translate(65.881165 322.182437)scale(0.1 -0.1)">
       <defs>
        <path id="DejaVuSans-30" d="M 2034 4250 
Q 1547 4250 1301 3770 
Q 1056 3291 1056 2328 
Q 1056 1369 1301 889 
Q 1547 409 2034 409 
Q 2525 409 2770 889 
Q 3016 1369 3016 2328 
Q 3016 3291 2770 3770 
Q 2525 4250 2034 4250 
z
M 2034 4750 
Q 2819 4750 3233 4129 
Q 3647 3509 3647 2328 
Q 3647 1150 3233 529 
Q 2819 -91 2034 -91 
Q 1250 -91 836 529 
Q 422 1150 422 2328 
Q 422 3509 836 4129 
Q 1250 4750 2034 4750 
z
" transform="scale(0.015625)"/>
        <path id="DejaVuSans-2e" d="M 684 794 
L 1344 794 
L 1344 0 
L 684 0 
L 684 794 
z
" transform="scale(0.015625)"/>
       </defs>
       <use xlink:href="#DejaVuSans-30"/>
       <use xlink:href="#DejaVuSans-2e" x="63.623047"/>
       <use xlink:href="#DejaVuSans-30" x="95.410156"/>
      </g>
     </g>
    </g>
    <g id="xtick_2">
     <g id="line2d_2">
      <g>
       <use xlink:href="#md29ad0aa41" x="138.763636" y="307.584" style="stroke: #000000; stroke-width: 0.8"/>
      </g>
     </g>
     <g id="text_2">
      <!-- 0.2 -->
      <g transform="translate(130.812074 322.182437)scale(0.1 -0.1)">
       <defs>
        <path id="DejaVuSans-32" d="M 1228 531 
L 3431 531 
L 3431 0 
L 469 0 
L 469 531 
Q 828 903 1448 1529 
Q 2069 2156 2228 2338 
Q 2531 2678 2651 2914 
Q 2772 3150 2772 3378 
Q 2772 3750 2511 3984 
Q 2250 4219 1831 4219 
Q 1534 4219 1204 4116 
Q 875 4013 500 3803 
L 500 4441 
Q 881 4594 1212 4672 
Q 1544 4750 1819 4750 
Q 2544 4750 2975 4387 
Q 3406 4025 3406 3419 
Q 3406 3131 3298 2873 
Q 3191 2616 2906 2266 
Q 2828 2175 2409 1742 
Q 1991 1309 1228 531 
z
" transform="scale(0.015625)"/>
       </defs>
       <use xlink:href="#DejaVuSans-30"/>
       <use xlink:href="#DejaVuSans-2e" x="63.623047"/>
       <use xlink:href="#DejaVuSans-32" x="95.410156"/>
      </g>
     </g>
    </g>
    <g id="xtick_3">
     <g id="line2d_3">
      <g>
       <use xlink:href="#md29ad0aa41" x="203.694545" y="307.584" style="stroke: #000000; stroke-width: 0.8"/>
      </g>
     </g>
     <g id="text_3">
      <!-- 0.4 -->
      <g transform="translate(195.742983 322.182437)scale(0.1 -0.1)">
       <defs>
        <path id="DejaVuSans-34" d="M 2419 4116 
L 825 1625 
L 2419 1625 
L 2419 4116 
z
M 2253 4666 
L 3047 4666 
L 3047 1625 
L 3713 1625 
L 3713 1100 
L 3047 1100 
L 3047 0 
L 2419 0 
L 2419 1100 
L 313 1100 
L 313 1709 
L 2253 4666 
z
" transform="scale(0.015625)"/>
       </defs>
       <use xlink:href="#DejaVuSans-30"/>
       <use xlink:href="#DejaVuSans-2e" x="63.623047"/>
       <use xlink:href="#DejaVuSans-34" x="95.410156"/>
      </g>
     </g>
    </g>
    <g id="xtick_4">
     <g id="line2d_4">
      <g>
       <use xlink:href="#md29ad0aa41" x="268.625455" y="307.584" style="stroke: #000000; stroke-width: 0.8"/>
      </g>
     </g>
     <g id="text_4">
      <!-- 0.6 -->
      <g transform="translate(260.673892 322.182437)scale(0.1 -0.1)">
       <defs>
        <path id="DejaVuSans-36" d="M 2113 2584 
Q 1688 2584 1439 2293 
Q 1191 2003 1191 1497 
Q 1191 994 1439 701 
Q 1688 409 2113 409 
Q 2538 409 2786 701 
Q 3034 994 3034 1497 
Q 3034 2003 2786 2293 
Q 2538 2584 2113 2584 
z
M 3366 4563 
L 3366 3988 
Q 3128 4100 2886 4159 
Q 2644 4219 2406 4219 
Q 1781 4219 1451 3797 
Q 1122 3375 1075 2522 
Q 1259 2794 1537 2939 
Q 1816 3084 2150 3084 
Q 2853 3084 3261 2657 
Q 3669 2231 3669 1497 
Q 3669 778 3244 343 
Q 2819 -91 2113 -91 
Q 1303 -91 875 529 
Q 447 1150 447 2328 
Q 447 3434 972 4092 
Q 1497 4750 2381 4750 
Q 2619 4750 2861 4703 
Q 3103 4656 3366 4563 
z
" transform="scale(0.015625)"/>
       </defs>
       <use xlink:href="#DejaVuSans-30"/>
       <use xlink:href="#DejaVuSans-2e" x="63.623047"/>
       <use xlink:href="#DejaVuSans-36" x="95.410156"/>
      </g>
     </g>
    </g>
    <g id="xtick_5">
     <g id="line2d_5">
      <g>
       <use xlink:href="#md29ad0aa41" x="333.556364" y="307.584" style="stroke: #000000; stroke-width: 0.8"/>
      </g>
     </g>
     <g id="text_5">
      <!-- 0.8 -->
      <g transform="translate(325.604801 322.182437)scale(0.1 -0.1)">
       <defs>
        <path id="DejaVuSans-38" d="M 2034 2216 
Q 1584 2216 1326 1975 
Q 1069 1734 1069 1313 
Q 1069 891 1326 650 
Q 1584 409 2034 409 
Q 2484 409 2743 651 
Q 3003 894 3003 1313 
Q 3003 1734 2745 1975 
Q 2488 2216 2034 2216 
z
M 1403 2484 
Q 997 2584 770 2862 
Q 544 3141 544 3541 
Q 544 4100 942 4425 
Q 1341 4750 2034 4750 
Q 2731 4750 3128 4425 
Q 3525 4100 3525 3541 
Q 3525 3141 3298 2862 
Q 3072 2584 2669 2484 
Q 3125 2378 3379 2068 
Q 3634 1759 3634 1313 
Q 3634 634 3220 271 
Q 2806 -91 2034 -91 
Q 1263 -91 848 271 
Q 434 634 434 1313 
Q 434 1759 690 2068 
Q 947 2378 1403 2484 
z
M 1172 3481 
Q 1172 3119 1398 2916 
Q 1625 2713 2034 2713 
Q 2441 2713 2670 2916 
Q 2900 3119 2900 3481 
Q 2900 3844 2670 4047 
Q 2441 4250 2034 4250 
Q 1625 4250 1398 4047 
Q 1172 3844 1172 3481 
z
" transform="scale(0.015625)"/>
       </defs>
       <use xlink:href="#DejaVuSans-30"/>
       <use xlink:href="#DejaVuSans-2e" x="63.623047"/>
       <use xlink:href="#DejaVuSans-38" x="95.410156"/>
      </g>
     </g>
    </g>
    <g id="xtick_6">
     <g id="line2d_6">
      <g>
       <use xlink:href="#md29ad0aa41" x="398.487273" y="307.584" style="stroke: #000000; stroke-width: 0.8"/>
      </g>
     </g>
     <g id="text_6">
      <!-- 1.0 -->
      <g transform="translate(390.53571 322.182437)scale(0.1 -0.1)">
       <defs>
        <path id="DejaVuSans-31" d="M 794 531 
L 1825 531 
L 1825 4091 
L 703 3866 
L 703 4441 
L 1819 4666 
L 2450 4666 
L 2450 531 
L 3481 531 
L 3481 0 
L 794 0 
L 794 531 
z
" transform="scale(0.015625)"/>
       </defs>
       <use xlink:href="#DejaVuSans-31"/>
       <use xlink:href="#DejaVuSans-2e" x="63.623047"/>
       <use xlink:href="#DejaVuSans-30" x="95.410156"/>
      </g>
     </g>
    </g>
    <g id="text_7">
     <!-- False Positive Rate -->
     <g transform="translate(189.693594 335.860562)scale(0.1 -0.1)">
      <defs>
       <path id="DejaVuSans-46" d="M 628 4666 
L 3309 4666 
L 3309 4134 
L 1259 4134 
L 1259 2759 
L 3109 2759 
L 3109 2228 
L 1259 2228 
L 1259 0 
L 628 0 
L 628 4666 
z
" transform="scale(0.015625)"/>
       <path id="DejaVuSans-61" d="M 2194 1759 
Q 1497 1759 1228 1600 
Q 959 1441 959 1056 
Q 959 750 1161 570 
Q 1363 391 1709 391 
Q 2188 391 2477 730 
Q 2766 1069 2766 1631 
L 2766 1759 
L 2194 1759 
z
M 3341 1997 
L 3341 0 
L 2766 0 
L 2766 531 
Q 2569 213 2275 61 
Q 1981 -91 1556 -91 
Q 1019 -91 701 211 
Q 384 513 384 1019 
Q 384 1609 779 1909 
Q 1175 2209 1959 2209 
L 2766 2209 
L 2766 2266 
Q 2766 2663 2505 2880 
Q 2244 3097 1772 3097 
Q 1472 3097 1187 3025 
Q 903 2953 641 2809 
L 641 3341 
Q 956 3463 1253 3523 
Q 1550 3584 1831 3584 
Q 2591 3584 2966 3190 
Q 3341 2797 3341 1997 
z
" transform="scale(0.015625)"/>
       <path id="DejaVuSans-6c" d="M 603 4863 
L 1178 4863 
L 1178 0 
L 603 0 
L 603 4863 
z
" transform="scale(0.015625)"/>
       <path id="DejaVuSans-73" d="M 2834 3397 
L 2834 2853 
Q 2591 2978 2328 3040 
Q 2066 3103 1784 3103 
Q 1356 3103 1142 2972 
Q 928 2841 928 2578 
Q 928 2378 1081 2264 
Q 1234 2150 1697 2047 
L 1894 2003 
Q 2506 1872 2764 1633 
Q 3022 1394 3022 966 
Q 3022 478 2636 193 
Q 2250 -91 1575 -91 
Q 1294 -91 989 -36 
Q 684 19 347 128 
L 347 722 
Q 666 556 975 473 
Q 1284 391 1588 391 
Q 1994 391 2212 530 
Q 2431 669 2431 922 
Q 2431 1156 2273 1281 
Q 2116 1406 1581 1522 
L 1381 1569 
Q 847 1681 609 1914 
Q 372 2147 372 2553 
Q 372 3047 722 3315 
Q 1072 3584 1716 3584 
Q 2034 3584 2315 3537 
Q 2597 3491 2834 3397 
z
" transform="scale(0.015625)"/>
       <path id="DejaVuSans-65" d="M 3597 1894 
L 3597 1613 
L 953 1613 
Q 991 1019 1311 708 
Q 1631 397 2203 397 
Q 2534 397 2845 478 
Q 3156 559 3463 722 
L 3463 178 
Q 3153 47 2828 -22 
Q 2503 -91 2169 -91 
Q 1331 -91 842 396 
Q 353 884 353 1716 
Q 353 2575 817 3079 
Q 1281 3584 2069 3584 
Q 2775 3584 3186 3129 
Q 3597 2675 3597 1894 
z
M 3022 2063 
Q 3016 2534 2758 2815 
Q 2500 3097 2075 3097 
Q 1594 3097 1305 2825 
Q 1016 2553 972 2059 
L 3022 2063 
z
" transform="scale(0.015625)"/>
       <path id="DejaVuSans-20" transform="scale(0.015625)"/>
       <path id="DejaVuSans-50" d="M 1259 4147 
L 1259 2394 
L 2053 2394 
Q 2494 2394 2734 2622 
Q 2975 2850 2975 3272 
Q 2975 3691 2734 3919 
Q 2494 4147 2053 4147 
L 1259 4147 
z
M 628 4666 
L 2053 4666 
Q 2838 4666 3239 4311 
Q 3641 3956 3641 3272 
Q 3641 2581 3239 2228 
Q 2838 1875 2053 1875 
L 1259 1875 
L 1259 0 
L 628 0 
L 628 4666 
z
" transform="scale(0.015625)"/>
       <path id="DejaVuSans-6f" d="M 1959 3097 
Q 1497 3097 1228 2736 
Q 959 2375 959 1747 
Q 959 1119 1226 758 
Q 1494 397 1959 397 
Q 2419 397 2687 759 
Q 2956 1122 2956 1747 
Q 2956 2369 2687 2733 
Q 2419 3097 1959 3097 
z
M 1959 3584 
Q 2709 3584 3137 3096 
Q 3566 2609 3566 1747 
Q 3566 888 3137 398 
Q 2709 -91 1959 -91 
Q 1206 -91 779 398 
Q 353 888 353 1747 
Q 353 2609 779 3096 
Q 1206 3584 1959 3584 
z
" transform="scale(0.015625)"/>
       <path id="DejaVuSans-69" d="M 603 3500 
L 1178 3500 
L 1178 0 
L 603 0 
L 603 3500 
z
M 603 4863 
L 1178 4863 
L 1178 4134 
L 603 4134 
L 603 4863 
z
" transform="scale(0.015625)"/>
       <path id="DejaVuSans-74" d="M 1172 4494 
L 1172 3500 
L 2356 3500 
L 2356 3053 
L 1172 3053 
L 1172 1153 
Q 1172 725 1289 603 
Q 1406 481 1766 481 
L 2356 481 
L 2356 0 
L 1766 0 
Q 1100 0 847 248 
Q 594 497 594 1153 
L 594 3053 
L 172 3053 
L 172 3500 
L 594 3500 
L 594 4494 
L 1172 4494 
z
" transform="scale(0.015625)"/>
       <path id="DejaVuSans-76" d="M 191 3500 
L 800 3500 
L 1894 563 
L 2988 3500 
L 3597 3500 
L 2284 0 
L 1503 0 
L 191 3500 
z
" transform="scale(0.015625)"/>
       <path id="DejaVuSans-52" d="M 2841 2188 
Q 3044 2119 3236 1894 
Q 3428 1669 3622 1275 
L 4263 0 
L 3584 0 
L 2988 1197 
Q 2756 1666 2539 1819 
Q 2322 1972 1947 1972 
L 1259 1972 
L 1259 0 
L 628 0 
L 628 4666 
L 2053 4666 
Q 2853 4666 3247 4331 
Q 3641 3997 3641 3322 
Q 3641 2881 3436 2590 
Q 3231 2300 2841 2188 
z
M 1259 4147 
L 1259 2491 
L 2053 2491 
Q 2509 2491 2742 2702 
Q 2975 2913 2975 3322 
Q 2975 3731 2742 3939 
Q 2509 4147 2053 4147 
L 1259 4147 
z
" transform="scale(0.015625)"/>
      </defs>
      <use xlink:href="#DejaVuSans-46"/>
      <use xlink:href="#DejaVuSans-61" x="48.394531"/>
      <use xlink:href="#DejaVuSans-6c" x="109.673828"/>
      <use xlink:href="#DejaVuSans-73" x="137.457031"/>
      <use xlink:href="#DejaVuSans-65" x="189.556641"/>
      <use xlink:href="#DejaVuSans-20" x="251.080078"/>
      <use xlink:href="#DejaVuSans-50" x="282.867188"/>
      <use xlink:href="#DejaVuSans-6f" x="339.544922"/>
      <use xlink:href="#DejaVuSans-73" x="400.726562"/>
      <use xlink:href="#DejaVuSans-69" x="452.826172"/>
      <use xlink:href="#DejaVuSans-74" x="480.609375"/>
      <use xlink:href="#DejaVuSans-69" x="519.818359"/>
      <use xlink:href="#DejaVuSans-76" x="547.601562"/>
      <use xlink:href="#DejaVuSans-65" x="606.78125"/>
      <use xlink:href="#DejaVuSans-20" x="668.304688"/>
      <use xlink:href="#DejaVuSans-52" x="700.091797"/>
      <use xlink:href="#DejaVuSans-61" x="767.324219"/>
      <use xlink:href="#DejaVuSans-74" x="828.603516"/>
      <use xlink:href="#DejaVuSans-65" x="867.8125"/>
     </g>
    </g>
   </g>
   <g id="matplotlib.axis_2">
    <g id="ytick_1">
     <g id="line2d_7">
      <defs>
       <path id="m1f19d85a89" d="M 0 0 
L -3.5 0 
" style="stroke: #000000; stroke-width: 0.8"/>
      </defs>
      <g>
       <use xlink:href="#m1f19d85a89" x="57.6" y="295.488" style="stroke: #000000; stroke-width: 0.8"/>
      </g>
     </g>
     <g id="text_8">
      <!-- 0.0 -->
      <g transform="translate(34.696875 299.287219)scale(0.1 -0.1)">
       <use xlink:href="#DejaVuSans-30"/>
       <use xlink:href="#DejaVuSans-2e" x="63.623047"/>
       <use xlink:href="#DejaVuSans-30" x="95.410156"/>
      </g>
     </g>
    </g>
    <g id="ytick_2">
     <g id="line2d_8">
      <g>
       <use xlink:href="#m1f19d85a89" x="57.6" y="247.104" style="stroke: #000000; stroke-width: 0.8"/>
      </g>
     </g>
     <g id="text_9">
      <!-- 0.2 -->
      <g transform="translate(34.696875 250.903219)scale(0.1 -0.1)">
       <use xlink:href="#DejaVuSans-30"/>
       <use xlink:href="#DejaVuSans-2e" x="63.623047"/>
       <use xlink:href="#DejaVuSans-32" x="95.410156"/>
      </g>
     </g>
    </g>
    <g id="ytick_3">
     <g id="line2d_9">
      <g>
       <use xlink:href="#m1f19d85a89" x="57.6" y="198.72" style="stroke: #000000; stroke-width: 0.8"/>
      </g>
     </g>
     <g id="text_10">
      <!-- 0.4 -->
      <g transform="translate(34.696875 202.519219)scale(0.1 -0.1)">
       <use xlink:href="#DejaVuSans-30"/>
       <use xlink:href="#DejaVuSans-2e" x="63.623047"/>
       <use xlink:href="#DejaVuSans-34" x="95.410156"/>
      </g>
     </g>
    </g>
    <g id="ytick_4">
     <g id="line2d_10">
      <g>
       <use xlink:href="#m1f19d85a89" x="57.6" y="150.336" style="stroke: #000000; stroke-width: 0.8"/>
      </g>
     </g>
     <g id="text_11">
      <!-- 0.6 -->
      <g transform="translate(34.696875 154.135219)scale(0.1 -0.1)">
       <use xlink:href="#DejaVuSans-30"/>
       <use xlink:href="#DejaVuSans-2e" x="63.623047"/>
       <use xlink:href="#DejaVuSans-36" x="95.410156"/>
      </g>
     </g>
    </g>
    <g id="ytick_5">
     <g id="line2d_11">
      <g>
       <use xlink:href="#m1f19d85a89" x="57.6" y="101.952" style="stroke: #000000; stroke-width: 0.8"/>
      </g>
     </g>
     <g id="text_12">
      <!-- 0.8 -->
      <g transform="translate(34.696875 105.751219)scale(0.1 -0.1)">
       <use xlink:href="#DejaVuSans-30"/>
       <use xlink:href="#DejaVuSans-2e" x="63.623047"/>
       <use xlink:href="#DejaVuSans-38" x="95.410156"/>
      </g>
     </g>
    </g>
    <g id="ytick_6">
     <g id="line2d_12">
      <g>
       <use xlink:href="#m1f19d85a89" x="57.6" y="53.568" style="stroke: #000000; stroke-width: 0.8"/>
      </g>
     </g>
     <g id="text_13">
      <!-- 1.0 -->
      <g transform="translate(34.696875 57.367219)scale(0.1 -0.1)">
       <use xlink:href="#DejaVuSans-31"/>
       <use xlink:href="#DejaVuSans-2e" x="63.623047"/>
       <use xlink:href="#DejaVuSans-30" x="95.410156"/>
      </g>
     </g>
    </g>
    <g id="text_14">
     <!-- True Positive Rate -->
     <g transform="translate(28.617187 219.057687)rotate(-90)scale(0.1 -0.1)">
      <defs>
       <path id="DejaVuSans-54" d="M -19 4666 
L 3928 4666 
L 3928 4134 
L 2272 4134 
L 2272 0 
L 1638 0 
L 1638 4134 
L -19 4134 
L -19 4666 
z
" transform="scale(0.015625)"/>
       <path id="DejaVuSans-72" d="M 2631 2963 
Q 2534 3019 2420 3045 
Q 2306 3072 2169 3072 
Q 1681 3072 1420 2755 
Q 1159 2438 1159 1844 
L 1159 0 
L 581 0 
L 581 3500 
L 1159 3500 
L 1159 2956 
Q 1341 3275 1631 3429 
Q 1922 3584 2338 3584 
Q 2397 3584 2469 3576 
Q 2541 3569 2628 3553 
L 2631 2963 
z
" transform="scale(0.015625)"/>
       <path id="DejaVuSans-75" d="M 544 1381 
L 544 3500 
L 1119 3500 
L 1119 1403 
Q 1119 906 1312 657 
Q 1506 409 1894 409 
Q 2359 409 2629 706 
Q 2900 1003 2900 1516 
L 2900 3500 
L 3475 3500 
L 3475 0 
L 2900 0 
L 2900 538 
Q 2691 219 2414 64 
Q 2138 -91 1772 -91 
Q 1169 -91 856 284 
Q 544 659 544 1381 
z
M 1991 3584 
L 1991 3584 
z
" transform="scale(0.015625)"/>
      </defs>
      <use xlink:href="#DejaVuSans-54"/>
      <use xlink:href="#DejaVuSans-72" x="46.333984"/>
      <use xlink:href="#DejaVuSans-75" x="87.447266"/>
      <use xlink:href="#DejaVuSans-65" x="150.826172"/>
      <use xlink:href="#DejaVuSans-20" x="212.349609"/>
      <use xlink:href="#DejaVuSans-50" x="244.136719"/>
      <use xlink:href="#DejaVuSans-6f" x="300.814453"/>
      <use xlink:href="#DejaVuSans-73" x="361.996094"/>
      <use xlink:href="#DejaVuSans-69" x="414.095703"/>
      <use xlink:href="#DejaVuSans-74" x="441.878906"/>
      <use xlink:href="#DejaVuSans-69" x="481.087891"/>
      <use xlink:href="#DejaVuSans-76" x="508.871094"/>
      <use xlink:href="#DejaVuSans-65" x="568.050781"/>
      <use xlink:href="#DejaVuSans-20" x="629.574219"/>
      <use xlink:href="#DejaVuSans-52" x="661.361328"/>
      <use xlink:href="#DejaVuSans-61" x="728.59375"/>
      <use xlink:href="#DejaVuSans-74" x="789.873047"/>
      <use xlink:href="#DejaVuSans-65" x="829.082031"/>
     </g>
    </g>
   </g>
   <g id="line2d_13">
    <path d="M 73.832727 295.488 
L 73.832727 284.801963 
L 74.130849 284.801963 
L 74.130849 249.478675 
L 74.428971 249.478675 
L 74.428971 236.121129 
L 74.727092 236.121129 
L 74.727092 218.311067 
L 75.025214 218.311067 
L 75.025214 212.968049 
L 75.323336 212.968049 
L 75.323336 209.702871 
L 75.621458 209.406037 
L 75.621458 203.172515 
L 75.919579 202.578847 
L 76.217701 202.578847 
L 76.217701 197.532663 
L 76.515823 197.532663 
L 76.515823 193.080147 
L 76.813944 193.080147 
L 76.813944 192.486479 
L 77.112066 192.486479 
L 77.112066 192.189644 
L 77.410188 192.189644 
L 77.410188 191.89281 
L 77.70831 191.595975 
L 77.70831 188.627632 
L 78.006431 188.627632 
L 78.006431 188.033963 
L 78.304553 188.033963 
L 78.304553 175.270086 
L 78.602675 175.270086 
L 78.602675 173.48908 
L 78.900796 173.48908 
L 78.900796 171.411239 
L 79.198918 171.411239 
L 79.198918 169.036564 
L 79.49704 169.036564 
L 79.49704 168.442896 
L 79.795162 168.442896 
L 79.795162 165.771387 
L 80.093283 165.771387 
L 80.093283 165.474552 
L 80.391405 165.474552 
L 80.391405 163.99038 
L 80.689527 163.99038 
L 80.689527 161.91254 
L 80.987648 161.91254 
L 80.987648 157.756859 
L 81.583892 157.756859 
L 81.583892 156.272687 
L 82.180135 156.272687 
L 82.180135 154.194847 
L 82.478257 154.194847 
L 82.478257 153.007509 
L 82.776379 153.007509 
L 82.776379 152.117006 
L 83.670744 152.117006 
L 83.670744 151.820172 
L 83.968866 151.820172 
L 83.968866 150.039166 
L 84.266987 150.039166 
L 84.266987 147.961325 
L 84.565109 147.961325 
L 84.565109 146.180319 
L 84.863231 146.180319 
L 84.863231 144.102479 
L 85.161352 144.102479 
L 85.161352 143.211975 
L 85.757596 143.211975 
L 85.757596 142.024638 
L 86.055718 142.024638 
L 86.055718 141.430969 
L 86.353839 141.430969 
L 86.353839 140.837301 
L 87.248204 140.837301 
L 87.248204 137.275288 
L 88.142569 137.275288 
L 88.142569 135.791117 
L 88.440691 135.791117 
L 88.440691 135.494282 
L 88.738813 135.494282 
L 88.738813 134.900613 
L 89.335056 134.900613 
L 89.335056 134.306945 
L 89.633178 134.306945 
L 89.633178 132.229104 
L 90.229421 132.229104 
L 90.229421 131.338601 
L 90.527543 131.338601 
L 90.527543 131.041767 
L 90.825665 131.041767 
L 90.825665 130.151264 
L 91.123787 130.151264 
L 91.123787 129.557595 
L 91.421908 129.557595 
L 91.421908 129.260761 
L 92.316273 129.260761 
L 92.316273 127.18292 
L 92.912517 127.18292 
L 92.912517 126.589252 
L 93.210639 126.589252 
L 93.210639 125.401914 
L 93.806882 125.401914 
L 93.806882 125.10508 
L 94.403125 125.10508 
L 94.403125 123.620908 
L 95.297491 123.620908 
L 95.297491 120.949399 
L 95.595612 120.949399 
L 95.595612 119.465227 
L 96.788099 119.465227 
L 96.788099 119.168393 
L 97.384343 119.168393 
L 97.384343 118.871558 
L 97.682464 118.871558 
L 97.682464 118.574724 
L 98.278708 118.574724 
L 98.278708 117.981055 
L 98.874951 117.981055 
L 98.874951 117.684221 
L 99.173073 117.684221 
L 99.173073 117.090552 
L 99.471195 117.090552 
L 99.471195 116.200049 
L 99.769316 116.200049 
L 99.769316 115.60638 
L 100.663681 115.60638 
L 100.663681 115.309546 
L 101.558047 115.309546 
L 101.558047 115.012712 
L 102.15429 115.012712 
L 102.15429 114.715877 
L 102.750533 114.715877 
L 102.750533 114.122209 
L 103.346777 114.122209 
L 103.346777 113.825374 
L 103.94302 113.825374 
L 103.94302 112.934871 
L 105.135507 112.934871 
L 105.135507 112.638037 
L 105.731751 112.638037 
L 105.731751 112.341202 
L 106.626116 112.341202 
L 106.626116 112.044368 
L 107.222359 112.044368 
L 107.222359 111.450699 
L 107.818603 111.450699 
L 107.818603 111.153865 
L 108.414846 111.153865 
L 108.414846 110.857031 
L 108.712968 110.857031 
L 108.712968 109.966528 
L 109.309211 109.966528 
L 109.309211 108.77919 
L 109.607333 108.77919 
L 109.607333 108.482356 
L 109.905455 108.482356 
L 109.905455 108.185521 
L 110.79982 108.185521 
L 110.79982 107.591853 
L 111.396063 107.591853 
L 111.396063 107.295018 
L 112.58855 107.295018 
L 112.58855 106.70135 
L 112.886672 106.70135 
L 112.886672 106.404515 
L 113.781037 106.404515 
L 113.781037 106.107681 
L 114.079159 106.107681 
L 114.079159 105.514012 
L 114.37728 105.514012 
L 114.37728 105.217178 
L 114.973524 105.217178 
L 114.973524 104.920344 
L 115.569767 104.920344 
L 115.569767 104.623509 
L 117.358497 104.623509 
L 117.358497 104.326675 
L 117.656619 104.326675 
L 117.656619 104.02984 
L 117.954741 104.02984 
L 117.954741 103.733006 
L 118.550984 103.733006 
L 118.550984 103.436172 
L 119.743471 103.436172 
L 119.743471 102.842503 
L 121.830323 102.842503 
L 121.830323 101.952 
L 122.128445 101.952 
L 122.128445 101.655166 
L 124.513418 101.655166 
L 124.513418 101.358331 
L 125.407784 101.358331 
L 125.407784 101.061497 
L 125.705905 101.061497 
L 125.705905 100.467828 
L 126.60027 100.467828 
L 126.60027 100.170994 
L 126.898392 100.170994 
L 126.898392 99.87416 
L 127.792757 99.87416 
L 127.792757 99.577325 
L 128.090879 99.577325 
L 128.090879 99.280491 
L 128.687122 99.280491 
L 128.687122 98.983656 
L 130.773974 98.983656 
L 130.773974 98.389988 
L 131.66834 98.389988 
L 131.66834 98.093153 
L 131.966461 98.093153 
L 131.966461 97.499485 
L 132.264583 97.499485 
L 132.264583 96.905816 
L 132.860826 96.905816 
L 132.860826 96.312147 
L 134.649557 96.312147 
L 134.649557 96.015313 
L 136.140165 96.015313 
L 136.140165 95.421644 
L 136.736409 95.421644 
L 137.03453 95.12481 
L 137.928896 95.12481 
L 137.928896 94.827975 
L 138.525139 94.827975 
L 138.525139 94.531141 
L 138.823261 94.531141 
L 138.823261 94.234307 
L 140.611991 94.234307 
L 140.611991 93.937472 
L 142.996965 93.937472 
L 142.996965 93.640638 
L 143.593208 93.640638 
L 143.593208 93.046969 
L 145.68006 93.046969 
L 145.68006 92.750135 
L 148.661277 92.750135 
L 148.661277 92.453301 
L 149.853764 92.453301 
L 149.853764 92.156466 
L 150.450008 92.156466 
L 150.450008 91.859632 
L 151.642494 91.859632 
L 151.642494 91.562798 
L 151.940616 91.562798 
L 151.940616 91.265963 
L 153.133103 91.265963 
L 153.133103 90.969129 
L 153.431225 90.969129 
L 153.431225 90.672294 
L 153.729346 90.672294 
L 153.729346 90.37546 
L 154.027468 90.37546 
L 154.027468 90.078626 
L 155.816198 90.078626 
L 155.816198 89.781791 
L 156.412442 89.781791 
L 156.412442 89.484957 
L 158.201172 89.484957 
L 158.201172 89.188123 
L 162.076754 89.188123 
L 162.076754 88.594454 
L 162.374876 88.594454 
L 162.374876 88.29762 
L 164.461728 88.29762 
L 164.461728 88.000785 
L 166.846702 88.000785 
L 166.846702 87.407117 
L 167.144823 87.407117 
L 167.144823 87.110282 
L 167.442945 87.110282 
L 167.442945 86.516613 
L 168.039189 86.516613 
L 168.039189 86.219779 
L 168.933554 86.219779 
L 168.933554 85.62611 
L 170.424162 85.62611 
L 170.424162 85.329276 
L 172.212893 85.329276 
L 172.511014 85.032442 
L 172.511014 84.735607 
L 174.597866 84.735607 
L 174.597866 84.438773 
L 175.790353 84.438773 
L 175.790353 84.141939 
L 176.98284 84.141939 
L 176.98284 83.845104 
L 178.473449 83.845104 
L 178.77157 83.54827 
L 181.156544 83.54827 
L 181.156544 83.251436 
L 183.243396 83.251436 
L 183.243396 82.954601 
L 183.541518 82.954601 
L 183.541518 82.657767 
L 184.734005 82.657767 
L 184.734005 82.360933 
L 185.330248 82.360933 
L 185.330248 82.064098 
L 188.013343 82.064098 
L 188.311465 81.767264 
L 192.187047 81.767264 
L 192.187047 81.470429 
L 196.658873 81.470429 
L 196.658873 81.173595 
L 198.149482 81.173595 
L 198.149482 80.579926 
L 204.111916 80.579926 
L 204.111916 80.283092 
L 205.900646 80.283092 
L 205.900646 79.986258 
L 207.689376 79.986258 
L 207.689376 79.392589 
L 207.987498 79.392589 
L 207.987498 79.095755 
L 208.28562 79.095755 
L 208.28562 78.79892 
L 210.670594 78.79892 
L 210.670594 78.502086 
L 211.564959 78.502086 
L 211.564959 78.205252 
L 213.055567 78.205252 
L 213.055567 77.908417 
L 213.651811 77.908417 
L 213.651811 77.611583 
L 214.248054 77.611583 
L 214.546176 77.314748 
L 216.93115 77.314748 
L 216.93115 76.72108 
L 218.421758 76.72108 
L 218.421758 76.424245 
L 219.018002 76.424245 
L 219.018002 76.127411 
L 219.614245 76.127411 
L 219.614245 75.533742 
L 221.104853 75.533742 
L 221.104853 74.643239 
L 222.29734 74.643239 
L 222.29734 74.346405 
L 223.489827 74.346405 
L 223.489827 74.049571 
L 227.961653 74.049571 
L 227.961653 73.752736 
L 230.346627 73.752736 
L 230.346627 73.455902 
L 231.240992 73.455902 
L 231.240992 73.159067 
L 233.924087 73.159067 
L 233.924087 72.862233 
L 236.607183 72.862233 
L 236.607183 72.565399 
L 237.501548 72.565399 
L 237.501548 72.268564 
L 237.799669 72.268564 
L 237.799669 71.97173 
L 240.780887 71.97173 
L 240.780887 71.674896 
L 243.16586 71.674896 
L 243.16586 70.784393 
L 246.147077 70.784393 
L 246.147077 70.487558 
L 246.743321 70.487558 
L 246.743321 69.89389 
L 256.283216 69.89389 
L 256.283216 69.597055 
L 257.773824 69.597055 
L 257.773824 69.300221 
L 259.860676 69.300221 
L 259.860676 69.003387 
L 261.053163 69.003387 
L 261.053163 68.706552 
L 263.140015 68.706552 
L 263.140015 68.409718 
L 263.736258 68.409718 
L 263.736258 68.112883 
L 264.332502 68.112883 
L 264.332502 67.816049 
L 267.015597 67.816049 
L 267.015597 67.519215 
L 275.363005 67.519215 
L 275.363005 67.22238 
L 276.555492 67.22238 
L 276.555492 66.925546 
L 276.853614 66.925546 
L 276.853614 66.628712 
L 279.536709 66.628712 
L 279.536709 66.331877 
L 280.729196 66.331877 
L 280.729196 65.738209 
L 281.027318 65.738209 
L 281.027318 65.441374 
L 282.219805 65.441374 
L 282.219805 65.14454 
L 285.499144 65.14454 
L 285.499144 64.550871 
L 288.480361 64.550871 
L 288.480361 64.254037 
L 289.076604 64.254037 
L 289.076604 63.957202 
L 291.163456 63.957202 
L 291.163456 63.660368 
L 291.461578 63.660368 
L 291.461578 63.363534 
L 292.057821 63.363534 
L 292.057821 62.769865 
L 293.250308 62.769865 
L 293.250308 62.176196 
L 294.442795 62.176196 
L 294.442795 61.879362 
L 295.933403 61.879362 
L 295.933403 61.582528 
L 298.020255 61.582528 
L 298.020255 61.285693 
L 305.175177 61.285693 
L 305.175177 60.988859 
L 307.56015 60.988859 
L 307.56015 60.692025 
L 313.522585 60.692025 
L 313.522585 60.39519 
L 317.696289 60.39519 
L 317.696289 60.098356 
L 319.186897 60.098356 
L 319.186897 59.801521 
L 319.78314 59.801521 
L 319.78314 59.504687 
L 320.379384 59.504687 
L 320.379384 59.207853 
L 325.447453 59.207853 
L 325.447453 58.911018 
L 328.42867 58.911018 
L 328.42867 58.614184 
L 331.409887 58.614184 
L 331.708009 58.31735 
L 332.006131 58.31735 
L 332.006131 58.020515 
L 335.28547 58.020515 
L 335.28547 57.723681 
L 343.930999 57.723681 
L 343.930999 57.426847 
L 345.421608 57.426847 
L 345.421608 57.130012 
L 347.210338 57.130012 
L 347.210338 56.833178 
L 351.08592 56.833178 
L 351.08592 56.536344 
L 354.067137 56.536344 
L 354.067137 56.239509 
L 355.259624 56.239509 
L 355.259624 55.942675 
L 356.452111 55.942675 
L 356.452111 55.64584 
L 367.482615 55.64584 
L 367.482615 55.349006 
L 383.879309 55.349006 
L 383.879309 55.052172 
L 386.860526 55.052172 
L 386.860526 54.755337 
L 389.543621 54.755337 
L 389.543621 54.458503 
L 389.841743 54.458503 
L 389.841743 54.161669 
L 390.736108 54.161669 
L 390.736108 53.864834 
L 393.419204 53.864834 
L 393.419204 53.568 
L 398.487273 53.568 
L 398.487273 53.568 
" clip-path="url(#pc47d5c2f50)" style="fill: none; stroke: #1f77b4; stroke-width: 1.5; stroke-linecap: square"/>
   </g>
   <g id="patch_3">
    <path d="M 57.6 307.584 
L 57.6 41.472 
" style="fill: none; stroke: #000000; stroke-width: 0.8; stroke-linejoin: miter; stroke-linecap: square"/>
   </g>
   <g id="patch_4">
    <path d="M 414.72 307.584 
L 414.72 41.472 
" style="fill: none; stroke: #000000; stroke-width: 0.8; stroke-linejoin: miter; stroke-linecap: square"/>
   </g>
   <g id="patch_5">
    <path d="M 57.6 307.584 
L 414.72 307.584 
" style="fill: none; stroke: #000000; stroke-width: 0.8; stroke-linejoin: miter; stroke-linecap: square"/>
   </g>
   <g id="patch_6">
    <path d="M 57.6 41.472 
L 414.72 41.472 
" style="fill: none; stroke: #000000; stroke-width: 0.8; stroke-linejoin: miter; stroke-linecap: square"/>
   </g>
   <g id="text_15">
    <!-- ROC Curve -->
    <g transform="translate(203.469375 35.472)scale(0.12 -0.12)">
     <defs>
      <path id="DejaVuSans-4f" d="M 2522 4238 
Q 1834 4238 1429 3725 
Q 1025 3213 1025 2328 
Q 1025 1447 1429 934 
Q 1834 422 2522 422 
Q 3209 422 3611 934 
Q 4013 1447 4013 2328 
Q 4013 3213 3611 3725 
Q 3209 4238 2522 4238 
z
M 2522 4750 
Q 3503 4750 4090 4092 
Q 4678 3434 4678 2328 
Q 4678 1225 4090 567 
Q 3503 -91 2522 -91 
Q 1538 -91 948 565 
Q 359 1222 359 2328 
Q 359 3434 948 4092 
Q 1538 4750 2522 4750 
z
" transform="scale(0.015625)"/>
      <path id="DejaVuSans-43" d="M 4122 4306 
L 4122 3641 
Q 3803 3938 3442 4084 
Q 3081 4231 2675 4231 
Q 1875 4231 1450 3742 
Q 1025 3253 1025 2328 
Q 1025 1406 1450 917 
Q 1875 428 2675 428 
Q 3081 428 3442 575 
Q 3803 722 4122 1019 
L 4122 359 
Q 3791 134 3420 21 
Q 3050 -91 2638 -91 
Q 1578 -91 968 557 
Q 359 1206 359 2328 
Q 359 3453 968 4101 
Q 1578 4750 2638 4750 
Q 3056 4750 3426 4639 
Q 3797 4528 4122 4306 
z
" transform="scale(0.015625)"/>
     </defs>
     <use xlink:href="#DejaVuSans-52"/>
     <use xlink:href="#DejaVuSans-4f" x="69.482422"/>
     <use xlink:href="#DejaVuSans-43" x="148.193359"/>
     <use xlink:href="#DejaVuSans-20" x="218.017578"/>
     <use xlink:href="#DejaVuSans-43" x="249.804688"/>
     <use xlink:href="#DejaVuSans-75" x="319.628906"/>
     <use xlink:href="#DejaVuSans-72" x="383.007812"/>
     <use xlink:href="#DejaVuSans-76" x="424.121094"/>
     <use xlink:href="#DejaVuSans-65" x="483.300781"/>
    </g>
   </g>
   <g id="legend_1">
    <g id="patch_7">
     <path d="M 317.57625 302.584 
L 407.72 302.584 
Q 409.72 302.584 409.72 300.584 
L 409.72 286.905875 
Q 409.72 284.905875 407.72 284.905875 
L 317.57625 284.905875 
Q 315.57625 284.905875 315.57625 286.905875 
L 315.57625 300.584 
Q 315.57625 302.584 317.57625 302.584 
z
" style="fill: #ffffff; opacity: 0.8; stroke: #cccccc; stroke-linejoin: miter"/>
    </g>
    <g id="line2d_14">
     <path d="M 319.57625 293.004312 
L 329.57625 293.004312 
L 339.57625 293.004312 
" style="fill: none; stroke: #1f77b4; stroke-width: 1.5; stroke-linecap: square"/>
    </g>
    <g id="text_16">
     <!-- AUC = 0.89 -->
     <g transform="translate(347.57625 296.504312)scale(0.1 -0.1)">
      <defs>
       <path id="DejaVuSans-41" d="M 2188 4044 
L 1331 1722 
L 3047 1722 
L 2188 4044 
z
M 1831 4666 
L 2547 4666 
L 4325 0 
L 3669 0 
L 3244 1197 
L 1141 1197 
L 716 0 
L 50 0 
L 1831 4666 
z
" transform="scale(0.015625)"/>
       <path id="DejaVuSans-55" d="M 556 4666 
L 1191 4666 
L 1191 1831 
Q 1191 1081 1462 751 
Q 1734 422 2344 422 
Q 2950 422 3222 751 
Q 3494 1081 3494 1831 
L 3494 4666 
L 4128 4666 
L 4128 1753 
Q 4128 841 3676 375 
Q 3225 -91 2344 -91 
Q 1459 -91 1007 375 
Q 556 841 556 1753 
L 556 4666 
z
" transform="scale(0.015625)"/>
       <path id="DejaVuSans-3d" d="M 678 2906 
L 4684 2906 
L 4684 2381 
L 678 2381 
L 678 2906 
z
M 678 1631 
L 4684 1631 
L 4684 1100 
L 678 1100 
L 678 1631 
z
" transform="scale(0.015625)"/>
       <path id="DejaVuSans-39" d="M 703 97 
L 703 672 
Q 941 559 1184 500 
Q 1428 441 1663 441 
Q 2288 441 2617 861 
Q 2947 1281 2994 2138 
Q 2813 1869 2534 1725 
Q 2256 1581 1919 1581 
Q 1219 1581 811 2004 
Q 403 2428 403 3163 
Q 403 3881 828 4315 
Q 1253 4750 1959 4750 
Q 2769 4750 3195 4129 
Q 3622 3509 3622 2328 
Q 3622 1225 3098 567 
Q 2575 -91 1691 -91 
Q 1453 -91 1209 -44 
Q 966 3 703 97 
z
M 1959 2075 
Q 2384 2075 2632 2365 
Q 2881 2656 2881 3163 
Q 2881 3666 2632 3958 
Q 2384 4250 1959 4250 
Q 1534 4250 1286 3958 
Q 1038 3666 1038 3163 
Q 1038 2656 1286 2365 
Q 1534 2075 1959 2075 
z
" transform="scale(0.015625)"/>
      </defs>
      <use xlink:href="#DejaVuSans-41"/>
      <use xlink:href="#DejaVuSans-55" x="68.408203"/>
      <use xlink:href="#DejaVuSans-43" x="141.601562"/>
      <use xlink:href="#DejaVuSans-20" x="211.425781"/>
      <use xlink:href="#DejaVuSans-3d" x="243.212891"/>
      <use xlink:href="#DejaVuSans-20" x="327.001953"/>
      <use xlink:href="#DejaVuSans-30" x="358.789062"/>
      <use xlink:href="#DejaVuSans-2e" x="422.412109"/>
      <use xlink:href="#DejaVuSans-38" x="454.199219"/>
      <use xlink:href="#DejaVuSans-39" x="517.822266"/>
     </g>
    </g>
   </g>
  </g>
 </g>
 <defs>
  <clipPath id="pc47d5c2f50">
   <rect x="57.6" y="41.472" width="357.12" height="266.112"/>
  </clipPath>
 </defs>
</svg>
